<svg id="svg" fill="#4917ee" stroke="#4917ee" width="69" height="69" version="1.1" viewBox="144 144 512 512" xmlns="http://www.w3.org/2000/svg">
    <g id="IconSvg_bgCarrier" stroke-width="0"></g>
    <g id="IconSvg_tracerCarrier" stroke-linecap="round" stroke-linejoin="round" stroke="#CCCCCC" stroke-width="0">
      <g xmlns="http://www.w3.org/2000/svg">
  <path d="m549.57 297.66h-362.11c-6.2617 0-12.27 2.4844-16.699 6.9141-4.4297 4.4297-6.918 10.438-6.918 16.699v251.91c0 6.2617 2.4883 12.27 6.918 16.699 4.4297 4.4297 10.438 6.918 16.699 6.918h362.11c6.2656 0 12.27-2.4883 16.699-6.918 4.4297-4.4297 6.918-10.438 6.918-16.699v-251.91c0-6.2617-2.4883-12.27-6.918-16.699s-10.434-6.9141-16.699-6.9141zm-235.52 283.39 109.57-136.97 109.57 136.97zm243.39-7.8711c-0.011719 3.0938-1.8359 5.8945-4.6602 7.1562l-123.02-153.77c-1.5469-1.7812-3.7891-2.8047-6.1484-2.8047s-4.6016 1.0234-6.1484 2.8047l-123.59 154.49h-79.012l90.672-113.36 18.238 22.828c2.7188 3.3984 7.6758 3.9492 11.074 1.2305 3.3945-2.7148 3.9492-7.6719 1.2305-11.07l-24.402-30.488c-1.5469-1.7812-3.7891-2.8047-6.1484-2.8047s-4.6016 1.0234-6.1484 2.8047l-104.69 130.86h-7.2344c-4.3477 0-7.8711-3.5234-7.8711-7.8711v-251.91c0-4.3477 3.5234-7.8711 7.8711-7.8711h362.11c2.0898 0 4.0898 0.82812 5.5664 2.3047 1.4766 1.4766 2.3047 3.4805 2.3047 5.5664z"></path>
  <path d="m612.54 203.2h-362.11c-6.2617 0-12.27 2.4883-16.699 6.9141-4.4297 4.4297-6.918 10.438-6.918 16.699v39.363c0 4.3477 3.5273 7.8711 7.875 7.8711s7.8711-3.5234 7.8711-7.8711v-39.363c0-4.3477 3.5234-7.8711 7.8711-7.8711h362.11c2.0898 0 4.0898 0.82812 5.5664 2.3047 1.4766 1.4766 2.3047 3.4805 2.3047 5.5664v251.91c0 2.0859-0.82812 4.0898-2.3047 5.5664-1.4766 1.4766-3.4766 2.3047-5.5664 2.3047h-7.8711c-4.3477 0-7.8711 3.5234-7.8711 7.8711 0 4.3477 3.5234 7.875 7.8711 7.875h7.8711c6.2617 0 12.27-2.4883 16.699-6.918 4.4297-4.4297 6.918-10.438 6.918-16.699v-251.91c0-6.2617-2.4883-12.27-6.918-16.699-4.4297-4.4258-10.438-6.9141-16.699-6.9141z"></path>
  <path d="m242.56 360.64c-8.3516 0-16.359 3.3203-22.266 9.2227-5.9062 5.9062-9.2227 13.914-9.2227 22.266s3.3164 16.363 9.2227 22.266c5.9062 5.9062 13.914 9.2227 22.266 9.2227 8.3516 0 16.359-3.3164 22.266-9.2227 5.9062-5.9023 9.2227-13.914 9.2227-22.266s-3.3164-16.359-9.2227-22.266c-5.9062-5.9023-13.914-9.2227-22.266-9.2227zm0 47.23v0.003906c-4.1758 0-8.1797-1.6602-11.133-4.6133-2.9531-2.9531-4.6133-6.957-4.6133-11.133s1.6602-8.1797 4.6133-11.133c2.9531-2.9492 6.957-4.6094 11.133-4.6094 4.1758 0 8.1797 1.6602 11.133 4.6094 2.9531 2.9531 4.6094 6.957 4.6094 11.133s-1.6562 8.1797-4.6094 11.133c-2.9531 2.9531-6.957 4.6133-11.133 4.6133z"></path>
 </g>

      </g>
     <g id="IconSvg_iconCarrier">
      <g xmlns="http://www.w3.org/2000/svg">
  <path d="m549.57 297.66h-362.11c-6.2617 0-12.27 2.4844-16.699 6.9141-4.4297 4.4297-6.918 10.438-6.918 16.699v251.91c0 6.2617 2.4883 12.27 6.918 16.699 4.4297 4.4297 10.438 6.918 16.699 6.918h362.11c6.2656 0 12.27-2.4883 16.699-6.918 4.4297-4.4297 6.918-10.438 6.918-16.699v-251.91c0-6.2617-2.4883-12.27-6.918-16.699s-10.434-6.9141-16.699-6.9141zm-235.52 283.39 109.57-136.97 109.57 136.97zm243.39-7.8711c-0.011719 3.0938-1.8359 5.8945-4.6602 7.1562l-123.02-153.77c-1.5469-1.7812-3.7891-2.8047-6.1484-2.8047s-4.6016 1.0234-6.1484 2.8047l-123.59 154.49h-79.012l90.672-113.36 18.238 22.828c2.7188 3.3984 7.6758 3.9492 11.074 1.2305 3.3945-2.7148 3.9492-7.6719 1.2305-11.07l-24.402-30.488c-1.5469-1.7812-3.7891-2.8047-6.1484-2.8047s-4.6016 1.0234-6.1484 2.8047l-104.69 130.86h-7.2344c-4.3477 0-7.8711-3.5234-7.8711-7.8711v-251.91c0-4.3477 3.5234-7.8711 7.8711-7.8711h362.11c2.0898 0 4.0898 0.82812 5.5664 2.3047 1.4766 1.4766 2.3047 3.4805 2.3047 5.5664z"></path>
  <path d="m612.54 203.2h-362.11c-6.2617 0-12.27 2.4883-16.699 6.9141-4.4297 4.4297-6.918 10.438-6.918 16.699v39.363c0 4.3477 3.5273 7.8711 7.875 7.8711s7.8711-3.5234 7.8711-7.8711v-39.363c0-4.3477 3.5234-7.8711 7.8711-7.8711h362.11c2.0898 0 4.0898 0.82812 5.5664 2.3047 1.4766 1.4766 2.3047 3.4805 2.3047 5.5664v251.91c0 2.0859-0.82812 4.0898-2.3047 5.5664-1.4766 1.4766-3.4766 2.3047-5.5664 2.3047h-7.8711c-4.3477 0-7.8711 3.5234-7.8711 7.8711 0 4.3477 3.5234 7.875 7.8711 7.875h7.8711c6.2617 0 12.27-2.4883 16.699-6.918 4.4297-4.4297 6.918-10.438 6.918-16.699v-251.91c0-6.2617-2.4883-12.27-6.918-16.699-4.4297-4.4258-10.438-6.9141-16.699-6.9141z"></path>
  <path d="m242.56 360.64c-8.3516 0-16.359 3.3203-22.266 9.2227-5.9062 5.9062-9.2227 13.914-9.2227 22.266s3.3164 16.363 9.2227 22.266c5.9062 5.9062 13.914 9.2227 22.266 9.2227 8.3516 0 16.359-3.3164 22.266-9.2227 5.9062-5.9023 9.2227-13.914 9.2227-22.266s-3.3164-16.359-9.2227-22.266c-5.9062-5.9023-13.914-9.2227-22.266-9.2227zm0 47.23v0.003906c-4.1758 0-8.1797-1.6602-11.133-4.6133-2.9531-2.9531-4.6133-6.957-4.6133-11.133s1.6602-8.1797 4.6133-11.133c2.9531-2.9492 6.957-4.6094 11.133-4.6094 4.1758 0 8.1797 1.6602 11.133 4.6094 2.9531 2.9531 4.6094 6.957 4.6094 11.133s-1.6562 8.1797-4.6094 11.133c-2.9531 2.9531-6.957 4.6133-11.133 4.6133z"></path>
 </g>

      </g>
      </svg>