<svg id="svg" fill="#4218cd" stroke="#4218cd" width="69" height="69" version="1.1" viewBox="143 143 514 514" xmlns="http://www.w3.org/2000/svg" transform="rotate(90)" stroke-width="0">
    <g id="IconSvg_bgCarrier" stroke-width="0"></g>
    <g id="IconSvg_tracerCarrier" stroke-linecap="round" stroke-linejoin="round" stroke="#CCCCCC" stroke-width="0">
      <g xmlns="http://www.w3.org/2000/svg">
  <path d="m636.16 400c0-27.137-22.922-52.172-64.711-71.012 16.227-42.871 14.73-76.793-4.4609-95.977-19.184-19.188-53.094-20.684-95.973-4.457-18.844-41.793-43.879-64.719-71.016-64.719s-52.172 22.922-71.012 64.711c-42.871-16.227-76.785-14.727-95.977 4.4609-19.191 19.184-20.688 53.102-4.457 95.973-41.793 18.844-64.719 43.879-64.719 71.02 0 27.137 22.922 52.172 64.711 71.012-16.227 42.871-14.73 76.789 4.4609 95.977h0.003907c11.719 10.855 27.344 16.492 43.293 15.621 18.07-0.625 35.887-4.4492 52.625-11.293 18.848 41.871 43.906 64.844 71.07 64.844s52.223-22.973 71.07-64.84h-0.003906c16.738 6.8438 34.555 10.668 52.625 11.289 15.953 0.86719 31.574-4.7695 43.297-15.621 19.191-19.188 20.688-53.105 4.4609-95.977 41.785-18.84 64.711-43.875 64.711-71.012zm-78.902-25.359c1.293 0.63672 2.5703 1.2734 3.7695 1.9023 0.60938 0.32031 1.1641 0.63281 1.75 0.95312 0.90234 0.48828 1.8164 0.98047 2.6641 1.4609 0.62109 0.35547 1.1953 0.70312 1.7891 1.0508 0.74609 0.44141 1.5 0.88281 2.2031 1.3164 0.57422 0.35547 1.1094 0.70312 1.6523 1.0547 0.64844 0.41406 1.2969 0.83203 1.9023 1.2383 0.52344 0.35156 1.0156 0.69531 1.5078 1.043 0.55859 0.39062 1.1172 0.78125 1.6406 1.168 0.46484 0.33984 0.90234 0.67188 1.3359 1.0039 0.49219 0.375 0.97266 0.74609 1.4297 1.1133 0.40234 0.32422 0.78906 0.64063 1.1641 0.95703 0.41797 0.35156 0.82812 0.69922 1.2109 1.0391 0.34766 0.30469 0.68359 0.60938 1.0039 0.90625 0.35938 0.33203 0.69531 0.65625 1.0234 0.97266 0.28906 0.28125 0.57422 0.5625 0.83984 0.83594 0.30469 0.3125 0.58594 0.61719 0.85938 0.91797 0.22656 0.25 0.45703 0.5 0.66406 0.73828 0.25391 0.29688 0.48047 0.57812 0.70312 0.85938 0.17578 0.21875 0.35547 0.44141 0.51172 0.65234 0.19922 0.26953 0.37109 0.51953 0.53906 0.77344 0.125 0.1875 0.26562 0.38672 0.375 0.5625 0.15234 0.25 0.27344 0.47266 0.39062 0.69922 0.078125 0.14844 0.17578 0.30859 0.24219 0.44922h0.007812c0.09375 0.20703 0.17969 0.42578 0.25391 0.64453 0.035156 0.097656 0.089844 0.21484 0.11328 0.30469 0.16406 0.48047 0.16406 1 0 1.4805-0.027344 0.089844-0.078126 0.20703-0.11328 0.30469v0.003906c-0.074218 0.21875-0.16016 0.43359-0.25391 0.64453-0.0625 0.13672-0.16016 0.29297-0.23438 0.44141-0.12109 0.23047-0.24219 0.46094-0.39844 0.71484-0.10547 0.16797-0.23438 0.35547-0.35547 0.53516-0.17578 0.26172-0.35547 0.52344-0.5625 0.80859-0.14844 0.19922-0.32031 0.41016-0.48828 0.62109-0.22656 0.28906-0.46484 0.57812-0.72656 0.88672-0.19922 0.23047-0.41797 0.47266-0.64062 0.71484-0.28125 0.30859-0.57422 0.625-0.89062 0.95313-0.25 0.25781-0.52344 0.52734-0.79688 0.79297-0.33984 0.33594-0.69922 0.67578-1.0781 1.0234-0.30469 0.28125-0.62109 0.56641-0.94922 0.85547-0.40625 0.35938-0.83203 0.72266-1.2734 1.0938-0.35547 0.30078-0.72266 0.60156-1.1055 0.90625-0.47656 0.38281-0.98047 0.77344-1.4961 1.1641-0.41406 0.31641-0.82812 0.63281-1.2695 0.95312-0.55078 0.40234-1.1367 0.8125-1.7266 1.2266-0.46484 0.32422-0.92578 0.64844-1.418 0.98047-0.64453 0.43359-1.3359 0.875-2.0273 1.3203-0.50781 0.32422-1 0.64844-1.5312 0.97656-0.74609 0.46094-1.5469 0.92969-2.3438 1.3984-0.55078 0.32422-1.0781 0.64453-1.6562 0.97266-0.89453 0.50781-1.8555 1.0273-2.8125 1.543-0.53906 0.29297-1.0508 0.58203-1.6094 0.875-1.2812 0.67188-2.6406 1.3516-4.0273 2.0352-0.29688 0.14844-0.56641 0.28906-0.86719 0.4375-1.6562 0.80078-3.3945 1.6055-5.1992 2.4141-2.2305-3.8867-4.625-7.793-7.0508-11.699-0.40625-0.65234-0.76172-1.2969-1.1719-1.9453-3.082-4.8984-6.3047-9.793-9.668-14.688 3.3672-4.8906 6.5898-9.7852 9.6641-14.688 0.42188-0.67188 0.79297-1.3359 1.2109-2.0078 2.4141-3.8867 4.7969-7.7734 7.0156-11.637 1.8008 0.80469 3.5391 1.6094 5.1875 2.4062 0.38281 0.18359 0.73438 0.37109 1.1172 0.5625zm-31.703 63.141c-1.5312 0.48438-3.0898 0.95703-4.6602 1.4219-0.48828-0.82031-1.0859-1.7227-1.5938-2.5586-1.3555-2.2305-2.7734-4.5039-4.2539-6.8164-0.66016-1.0352-1.2188-1.9961-1.8984-3.0469 1.1719-1.4688 2.2578-2.9453 3.4062-4.418 1.7188-2.207 3.4336-4.4023 5.0938-6.6094 0.5-0.66406 1.0391-1.3281 1.5352-1.9922 2.0312 3.0391 4.168 6.0703 6.082 9.1094 0.14453 0.23047 0.30078 0.46094 0.44531 0.69141 2.2422 3.5742 4.2109 7.1172 6.2812 10.676-0.90625 0.32812-1.7617 0.67188-2.6875 0.99609-2.5039 0.875-5.1133 1.7148-7.75 2.5469zm-22.812 6.3125c-0.70703 0.16406-1.4922 0.3125-2.207 0.47266 0.074219-0.94141 0.14844-1.8906 0.21875-2.832 0.62109-0.71875 1.2344-1.4414 1.8477-2.1602 0.42578 0.67578 0.91797 1.3984 1.3359 2.0664l0.33203 0.53516c0.28906 0.46484 0.51562 0.88281 0.80078 1.3438-0.47656 0.11328-0.89453 0.23828-1.375 0.35156zm53.113-199.95c15.23 15.23 14.578 46.578-1.7852 86.008v-0.003906c-3.9805 9.4727-8.4648 18.723-13.434 27.715-7.1484 12.969-15.035 25.516-23.609 37.59l-0.003906 0.011719c-6.0625 8.5703-12.691 17.277-19.707 25.875l-0.007812 0.015625c-3.2812 4.0195-6.668 8.0352-10.156 12.047-4.5625 5.25-9.1992 10.344-13.82 15.273-0.36328 0.38672-0.72266 0.78125-1.0859 1.168-4.4453 0.66797-8.9336 1.3164-13.637 1.8672-3.8203 0.44922-7.543 0.78516-11.281 1.1367 0.92969-0.91797 1.8555-1.8359 2.7695-2.7539 5.9219-5.9219 11.832-12.129 18.062-18.98 7.6523-8.4141 14.914-16.996 22.207-26.234 3.625-4.5898 7.0547-9.1094 10.289-13.559 3.2734-4.4883 6.375-8.9102 9.2969-13.258l0.003906-0.007812c5.375-8.0352 10.125-15.684 14.121-22.73l0.003906-0.007813h-0.003906c5.4453-9.5312 10.328-19.375 14.625-29.48v-0.007813c13.965-33.27 16.27-60.305 6.0195-70.555-1.2617-1.2109-2.6953-2.2266-4.2617-3.0117-0.52344-0.27344-1.1328-0.47266-1.6992-0.71094-1.2344-0.53906-2.5156-0.98047-3.8203-1.3203-0.75391-0.19531-1.5508-0.34375-2.3555-0.49219-1.4531-0.26172-2.918-0.44922-4.3906-0.55859-0.89453-0.070313-1.7812-0.14063-2.7227-0.16406-0.47656-0.011719-0.89453-0.082031-1.3828-0.082031-0.73438 0-1.6133 0.14844-2.375 0.17578-2.043 0.070313-4.1484 0.21094-6.3711 0.46875-1.3086 0.15234-2.6367 0.33984-4.0039 0.55859-2.3164 0.36719-4.7148 0.84375-7.1836 1.3984-1.418 0.31641-2.8125 0.61719-4.2773 0.99609-2.7383 0.70703-5.5859 1.5664-8.4766 2.4844-1.3281 0.42188-2.6055 0.77344-3.9648 1.2422-4.2227 1.4492-8.5586 3.0703-13.031 4.9453l-0.24219 0.089844h-0.003906c-10.105 4.2969-19.953 9.1836-29.488 14.629-7.0508 3.9961-14.699 8.75-22.738 14.125-3.6445 2.4453-7.3398 5.0195-11.094 7.7305-8.0781-0.15625-16.285-0.12891-24.344 0.0625-0.58203 0.011718-1.1641 0.027344-1.7461 0.042968 1.5195-1.1992 3.0352-2.4219 4.5586-3.5938 1.1758-0.90625 2.3555-1.8281 3.5312-2.7188 3.7695-2.8516 7.5352-5.6328 11.277-8.2852 0.14453-0.10156 0.28906-0.21094 0.42969-0.3125 12.07-8.5781 24.621-16.461 37.586-23.613 8.9922-4.9688 18.242-9.4531 27.711-13.43 39.426-16.367 70.777-17.02 86.012-1.7891zm-181.78-0.27734c0.19141-0.39063 0.375-0.74219 0.56641-1.125 0.63672-1.293 1.2734-2.5703 1.9023-3.7695 0.32031-0.60938 0.63281-1.1641 0.95312-1.75 0.48828-0.90234 0.98047-1.8164 1.4609-2.6641 0.35547-0.62109 0.70312-1.1953 1.0508-1.7891 0.44141-0.74609 0.88281-1.5 1.3164-2.2031 0.35547-0.57422 0.70312-1.1094 1.0547-1.6523 0.41406-0.64844 0.83203-1.2969 1.2383-1.9023 0.35156-0.52344 0.69531-1.0156 1.043-1.5078 0.39062-0.55859 0.78125-1.1172 1.168-1.6406 0.33984-0.46484 0.67188-0.90234 1.0039-1.3359 0.375-0.49219 0.74609-0.97266 1.1133-1.4297 0.32422-0.40234 0.64063-0.78906 0.95703-1.1641 0.35156-0.41797 0.69922-0.82812 1.0391-1.2109 0.30469-0.34766 0.60938-0.68359 0.90625-1.0039 0.33203-0.35938 0.65625-0.69531 0.97266-1.0234 0.28125-0.28906 0.5625-0.57422 0.83594-0.83984 0.3125-0.30469 0.61719-0.58594 0.91797-0.85938 0.25-0.22656 0.5-0.45703 0.73828-0.66406 0.29688-0.25391 0.57812-0.48047 0.85938-0.70312 0.21875-0.17578 0.44141-0.35547 0.65234-0.51172 0.26953-0.19922 0.51953-0.37109 0.77344-0.53906 0.1875-0.125 0.38672-0.26562 0.5625-0.375 0.25-0.15234 0.47266-0.27344 0.69922-0.39062 0.14844-0.078125 0.30859-0.17578 0.44922-0.24219v-0.007812c0.20703-0.097656 0.42578-0.18359 0.64453-0.25391 0.097656-0.035156 0.21484-0.089844 0.30469-0.11328v-0.003906c0.48047-0.16406 1-0.16406 1.4805 0 0.089844 0.027344 0.20703 0.082032 0.30469 0.11328l0.003906 0.003906c0.21875 0.070312 0.43359 0.15625 0.64453 0.25391 0.14062 0.066406 0.30078 0.16016 0.44922 0.24219 0.22656 0.12109 0.44922 0.23828 0.69922 0.39062 0.17578 0.10938 0.375 0.25 0.5625 0.375 0.25 0.16797 0.50391 0.33984 0.77344 0.53906 0.20703 0.15625 0.42969 0.33594 0.65234 0.51172 0.28125 0.22266 0.5625 0.44922 0.85938 0.70312 0.23828 0.20703 0.49219 0.43359 0.74219 0.66406 0.30078 0.27344 0.60156 0.55469 0.91797 0.85938 0.27344 0.26562 0.55469 0.55078 0.83594 0.83984 0.31641 0.32422 0.64062 0.66406 0.97266 1.0234 0.29688 0.32031 0.60156 0.65625 0.90625 1.0039 0.33984 0.38672 0.6875 0.79297 1.0391 1.2109 0.31641 0.375 0.63281 0.76172 0.95703 1.1641 0.36328 0.45312 0.73828 0.9375 1.1133 1.4297 0.33203 0.43359 0.66406 0.87109 1.0039 1.3359 0.38281 0.52344 0.77344 1.082 1.168 1.6406 0.34766 0.49219 0.69141 0.98438 1.043 1.5078 0.40625 0.60547 0.82422 1.2578 1.2383 1.9023 0.35156 0.54297 0.69922 1.0781 1.0547 1.6523 0.43359 0.70312 0.875 1.457 1.3164 2.2031 0.35156 0.59375 0.69922 1.1641 1.0508 1.7891 0.48438 0.84766 0.97266 1.7617 1.4609 2.6641 0.31641 0.58594 0.63281 1.1406 0.95313 1.75 0.62891 1.1992 1.2656 2.4766 1.9023 3.7695 0.1875 0.38281 0.375 0.73438 0.56641 1.125 0.79687 1.6523 1.6016 3.3867 2.4062 5.1875-3.8711 2.2227-7.7617 4.6055-11.656 7.0273-0.66406 0.41406-1.3203 0.77734-1.9844 1.1953-4.8945 3.082-9.793 6.3047-14.691 9.668-4.8906-3.3672-9.7852-6.5898-14.688-9.6641-0.67188-0.42188-1.3359-0.79297-2.0078-1.2109-3.8867-2.4141-7.7734-4.7969-11.637-7.0156 0.80078-1.7969 1.6016-3.5312 2.4023-5.1836zm120.38 26.656c1.9609-0.64844 3.8477-1.2344 5.6562-1.7578 1.3867-0.40234 2.7617-0.79688 4.0625-1.1289 1.7344-0.44531 3.3711-0.81641 4.9492-1.1523 1.1445-0.24219 2.3086-0.49609 3.3711-0.68359 1.4961-0.26562 2.8711-0.45312 4.207-0.62109 0.91797-0.11719 1.8789-0.25391 2.7227-0.32813 1.2617-0.10937 2.375-0.15234 3.4648-0.18359 0.69531-0.019531 1.457-0.066407 2.0859-0.058594 1.0195 0.015625 1.8711 0.089844 2.7109 0.16797 0.48828 0.046875 1.0625 0.0625 1.4883 0.125l0.003907 0.003906c0.67578 0.10156 1.3477 0.25391 2.0039 0.44531 0.26562 0.074219 0.63281 0.12891 0.85547 0.21094 1.2031 0.25391 2.1406 1.1914 2.3984 2.3945 0.082031 0.23047 0.14062 0.60547 0.21484 0.87891 0.19141 0.64844 0.33984 1.3086 0.44141 1.9727 0.066406 0.44531 0.085938 1.043 0.13281 1.5547 0.074219 0.82031 0.14844 1.6406 0.16406 2.6289 0.011719 0.66797-0.039063 1.4727-0.0625 2.2148-0.03125 1.0508-0.070313 2.1172-0.17578 3.3203-0.078125 0.89062-0.22266 1.9023-0.34766 2.8789-0.16406 1.2852-0.34375 2.5977-0.59766 4.0312-0.19531 1.1211-0.46484 2.3438-0.71875 3.5547-0.32422 1.5195-0.67969 3.0898-1.1055 4.7539-0.34375 1.3516-0.75781 2.7812-1.1758 4.2266-0.51172 1.7617-1.082 3.5977-1.7109 5.5-0.52344 1.582-1.0977 3.2227-1.7109 4.9023-0.33594 0.92969-0.75 1.9375-1.1133 2.8984-4.2578-1.1523-8.6406-2.2031-13.051-3.2344-0.79297-0.18359-1.5469-0.39844-2.3477-0.58203-5.6328-1.2812-11.367-2.4648-17.199-3.543-1.0742-5.8359-2.2539-11.57-3.5469-17.207-0.17969-0.78516-0.39062-1.5273-0.57422-2.3125-1.0312-4.418-2.0859-8.8086-3.2422-13.078 0.97656-0.37109 2-0.78906 2.9414-1.1328 1.6523-0.58984 3.2578-1.1523 4.8047-1.6641zm-42.117 77.137c0.17969 1.6953 0.35156 3.3945 0.51172 5.0742-0.91797-0.92969-1.8438-1.9102-2.7578-2.8281s-1.8984-1.8398-2.8281-2.7578c1.6797 0.15625 3.3789 0.32812 5.0742 0.50781zm18.492 56.246c0.007813-1.3125 0.015625-2.6133 0.015625-3.9062 0-8.3203-0.21094-16.891-0.64844-26.191-0.38281-8.0625-0.96484-16.043-1.7617-24.176 2.1289 0.30078 4.3516 0.55469 6.4336 0.87891 3.2852 0.51562 6.3828 1.1094 9.5391 1.6758 0.28906 3.2578 0.60547 6.4961 0.83594 9.8008 0.52344 7.4141 0.83984 14.855 1.0547 22.207-2.6641 3.6055-5.3672 7.2266-8.2891 10.922-2.3906 3.0273-4.7852 5.8906-7.1797 8.7852zm32.863-47.777c0.48047 0.11328 0.89844 0.23438 1.375 0.35156-0.28125 0.46094-0.51172 0.88281-0.80078 1.3477l-0.32812 0.52344c-0.41797 0.67188-0.91016 1.3945-1.3398 2.0742-0.61328-0.71875-1.2266-1.4375-1.8477-2.1602-0.070312-0.94531-0.14453-1.8906-0.21875-2.832 0.71875 0.16016 1.5039 0.30859 2.207 0.47266zm-36.91-54.332c-1.9141-0.23828-3.7891-0.52344-5.7188-0.73828-0.25781-1.2148-0.54297-2.2852-0.80469-3.4727-0.60156-2.7109-1.2109-5.3477-1.8359-7.9062-0.22656-0.93359-0.4375-1.9766-0.66797-2.8867 1.4492-0.78125 2.8867-1.5547 4.3164-2.2969 2.457-1.2773 4.9023-2.5312 7.3008-3.6875 0.87109-0.42188 1.707-0.77734 2.5703-1.1836 0.47266 1.793 0.94922 3.582 1.4023 5.4062 1.0625 4.2891 2.0664 8.6484 3.0117 13.078 0.35156 1.668 0.67188 3.3672 1.0078 5.0547-0.83203-0.12109-1.6992-0.21094-2.5352-0.32812-2.6602-0.37891-5.3477-0.71094-8.043-1.043zm-25.156-5.7266 0.55859-0.34766c0.46094-0.28516 0.875-0.51172 1.332-0.79297 0.11328 0.47656 0.23828 0.89453 0.35156 1.3789l0.22266 0.95312c0.16406 0.70703 0.3125 1.4922 0.47266 2.207-0.94141-0.074219-1.8906-0.14844-2.832-0.21875-0.71875-0.62109-1.4414-1.2383-2.1602-1.8477 0.67578-0.43359 1.3906-0.92188 2.0547-1.3359zm-28.504 17.508c8.2031 0.19531 16.574 0.59375 24.879 1.1797 5.3008 0.37109 10.539 0.82031 15.715 1.3438 11.035 1.1133 21.887 2.582 32.246 4.3633 6.8906 1.1797 13.621 2.5547 20.234 4.0273 2.0664 0.46094 4.0703 0.97266 6.1055 1.4609 2.7422 0.65625 5.3906 1.3828 8.0703 2.0938-0.40625 0.86719-0.76562 1.7109-1.1875 2.5859-1.1484 2.3789-2.3945 4.8086-3.6602 7.2461-0.75 1.4414-1.5273 2.8945-2.3164 4.3555-1.3398-0.33984-2.7852-0.66406-4.1719-0.99609-1.1719-0.28125-2.3203-0.5625-3.5234-0.83984-3.9453-0.90625-8-1.793-12.254-2.6367-5.1328-1.0156-10.449-1.9492-15.957-2.8008-5.4453-0.85156-11.066-1.625-16.855-2.3086-11.684-1.375-22.891-2.3086-34.262-2.8516-9.3008-0.4375-17.867-0.65234-26.188-0.65234s-16.891 0.21094-26.191 0.64844c-7.1875 0.34375-14.348 0.90234-21.566 1.5742-0.875 0.082031-1.7305 0.10547-2.6094 0.19141 0.30078-2.1289 0.55469-4.3555 0.87891-6.4336 0.51562-3.2852 1.1094-6.3828 1.6758-9.5391 3.2578-0.28906 6.4961-0.60547 9.8008-0.83594 8.3047-0.58984 16.68-0.98438 24.875-1.1797 8.6992-0.19922 17.57-0.19922 26.262 0zm-54.863-14.332c-0.94531 0.070312-1.8906 0.14453-2.832 0.21875 0.16016-0.71484 0.30859-1.5 0.47266-2.2031l0.22266-0.96484c0.11328-0.48047 0.23438-0.89453 0.34766-1.3711 0.46094 0.28125 0.87891 0.51172 1.3438 0.80078l0.53516 0.33203c0.66797 0.41797 1.3906 0.90625 2.0664 1.3359-0.71484 0.61328-1.4336 1.2266-2.1562 1.8477zm-10.875 51.086c0.089843-0.89062 0.17578-1.7812 0.26953-2.6719 0.89844-0.09375 1.793-0.17969 2.6875-0.26953 0.78125-0.078125 1.5469-0.10547 2.3242-0.17969-0.91016 0.89453-1.8672 1.8008-2.7656 2.6953-0.89453 0.89453-1.8008 1.8555-2.6953 2.7656 0.074219-0.78906 0.10156-1.5586 0.17969-2.3438zm30.406-67.012c-1.5273 1.1875-3.0547 2.3164-4.5781 3.5312-1.0508-0.68359-2.0117-1.2422-3.0469-1.8984-2.3164-1.4766-4.5898-2.8945-6.8164-4.2539-0.83594-0.50781-1.7383-1.1055-2.5586-1.5938 0.46484-1.5625 0.93359-3.1172 1.418-4.6406 0.83594-2.6406 1.6758-5.2578 2.5508-7.7734 0.32422-0.92578 0.66797-1.7773 0.99609-2.6836 3.5469 2.0625 7.0742 4.0234 10.641 6.2617 0.26172 0.16406 0.52734 0.34375 0.78906 0.51172 3.0117 1.8984 6.0273 4.0234 9.043 6.0391-0.69531 0.51953-1.3906 1.0859-2.0898 1.6094-2.1172 1.5898-4.2266 3.2383-6.3477 4.8906zm-30.137 169.02c-0.17969-1.6953-0.35156-3.3945-0.51172-5.0742 0.91797 0.92969 1.8438 1.9102 2.7578 2.8281 0.91406 0.91797 1.8984 1.8398 2.8281 2.7578-1.6797-0.16016-3.3789-0.33203-5.0742-0.51172zm29.738 2.2305c-5.8203-5.3438-11.238-10.488-16.359-15.609-5.1211-5.1172-10.27-10.535-15.609-16.355-0.33984-7.9336-0.53125-15.41-0.53125-22.605s0.19141-14.676 0.53125-22.605c5.3438-5.8203 10.488-11.238 15.609-16.359s10.539-10.27 16.359-15.609c15.816-0.67578 29.398-0.67969 45.211 0 5.8203 5.3438 11.238 10.488 16.359 15.609s10.27 10.539 15.609 16.359c0.33594 7.9297 0.52734 15.41 0.52734 22.605s-0.19141 14.672-0.53125 22.605c-5.3438 5.8203-10.488 11.238-15.609 16.359-5.1211 5.1211-10.539 10.27-16.359 15.609-15.816 0.67578-29.395 0.67578-45.207 0zm22.605-274.99c20.211 0 40.57 19.926 56.48 54.984-1.1875 0.53516-2.4375 1.2031-3.6406 1.7656-2.2852 1.0703-4.582 2.1836-6.9102 3.3516-1.2578 0.62891-2.4648 1.1562-3.7344 1.8125-0.11719-0.25781-0.24219-0.47656-0.35937-0.73047-1.4805-3.2148-2.9922-6.3125-4.5312-9.2305-0.14063-0.26562-0.28516-0.51562-0.42578-0.78125-1.5977-2.9883-3.2227-5.8398-4.8672-8.4922l-0.0625-0.10938c-1.6406-2.6328-3.3008-5.0586-4.9688-7.3359-0.17969-0.25-0.36328-0.51172-0.54297-0.75781-1.5938-2.1328-3.1914-4.0664-4.7969-5.8594-0.25391-0.28516-0.51172-0.57812-0.76562-0.85547l-0.007812-0.003906c-1.4844-1.6094-3.0547-3.1367-4.707-4.5742-0.27344-0.23438-0.54297-0.46484-0.81641-0.69141-1.4727-1.2305-3.0352-2.3516-4.6758-3.3516-0.24219-0.14844-0.48438-0.26953-0.72656-0.40625v-0.003906c-1.4844-0.85938-3.0547-1.5664-4.6836-2.1094-0.16406-0.050781-0.32422-0.078125-0.48828-0.125v0.003906c-1.5469-0.47656-3.1523-0.73047-4.7695-0.75781-14.496 0-31.984 20.75-45.641 54.152-4.1055 10.184-7.6133 20.598-10.504 31.191-2.1641 7.8164-4.2148 16.59-6.0938 26.07-1.0156 5.1328-1.9492 10.449-2.8008 15.953-0.85156 5.4531-1.6289 11.059-2.3086 16.859-1.375 11.684-2.3086 22.895-2.8516 34.258v0.003906c-0.4375 9.2969-0.65234 17.863-0.65234 26.188 0 8.3203 0.21094 16.891 0.64844 26.191 0.38281 8.0664 0.96484 16.047 1.7617 24.176-2.1289-0.30078-4.3555-0.55469-6.4336-0.87891-3.2852-0.51562-6.3828-1.1094-9.5391-1.6758-0.28906-3.2578-0.60547-6.4961-0.83594-9.8008-0.58984-8.3047-0.98438-16.68-1.1797-24.875-0.09375-4.3555-0.16406-8.7266-0.16406-13.137 0-4.4141 0.070312-8.7812 0.16797-13.125 0.19531-8.2031 0.59375-16.574 1.1797-24.879 0.37109-5.3008 0.82031-10.539 1.3438-15.715 1.1133-11.035 2.582-21.887 4.3633-32.246l0.003906-0.003906c2.4648-14.602 5.7656-29.051 9.8828-43.277 2.8438-9.8711 6.2148-19.582 10.098-29.09 16.312-39.453 38.016-62.082 59.555-62.082zm-102.74 264.51-0.96484-0.22266c-0.48047-0.11328-0.89453-0.23438-1.3711-0.34766 0.28125-0.46094 0.51172-0.87891 0.80078-1.3438l0.33203-0.53516c0.41797-0.66797 0.90625-1.3906 1.3359-2.0664 0.61328 0.71875 1.2266 1.4414 1.8477 2.1602 0.070312 0.94531 0.14453 1.8906 0.21875 2.832-0.71484-0.16406-1.4961-0.3125-2.1992-0.47656zm-54.277-18.613c-1.3867-0.67969-2.7461-1.3594-4.0273-2.0352-0.5625-0.29297-1.0703-0.58203-1.6094-0.875-0.95703-0.51562-1.918-1.0352-2.8125-1.543-0.58203-0.33203-1.1172-0.65625-1.6719-0.98438-0.78906-0.46484-1.582-0.92969-2.3203-1.3867-0.53906-0.33203-1.0352-0.65625-1.5469-0.98438-0.6875-0.44141-1.375-0.88281-2.0156-1.3125-0.49219-0.33203-0.95312-0.65625-1.418-0.98047-0.58984-0.41406-1.1758-0.82422-1.7266-1.2266-0.44141-0.32422-0.85547-0.63672-1.2695-0.95312-0.51562-0.39453-1.0195-0.78516-1.4961-1.1641-0.38281-0.30469-0.74609-0.60938-1.1055-0.90625-0.44141-0.37109-0.87109-0.73438-1.2734-1.0938-0.32812-0.28906-0.64453-0.57422-0.94922-0.85547-0.37891-0.34766-0.73438-0.69141-1.0781-1.0234-0.27344-0.26953-0.54297-0.53516-0.79687-0.79297-0.31641-0.32422-0.60938-0.64062-0.89063-0.95312-0.21875-0.24219-0.44141-0.48047-0.64062-0.71484-0.26172-0.30469-0.49609-0.59375-0.72266-0.87891-0.16797-0.21094-0.34375-0.42969-0.49609-0.63281-0.20703-0.27734-0.38281-0.53906-0.55469-0.79297-0.12109-0.18359-0.25781-0.37109-0.36328-0.54297-0.15625-0.25391-0.27734-0.48438-0.39844-0.71094-0.078125-0.14453-0.17188-0.30469-0.23438-0.44141l-0.003906-0.003906c-0.097656-0.21094-0.18359-0.42578-0.25781-0.64844-0.035157-0.097657-0.089844-0.21484-0.11328-0.30469-0.16406-0.48047-0.16406-1 0-1.4805 0.027344-0.089843 0.082032-0.20703 0.11328-0.30469 0.074218-0.22266 0.16016-0.4375 0.25781-0.64844 0.066406-0.14063 0.16016-0.30078 0.24219-0.44922 0.12109-0.22656 0.23828-0.44922 0.39062-0.69922 0.10938-0.17578 0.25-0.375 0.375-0.5625 0.16797-0.25 0.33984-0.50391 0.53906-0.77344 0.15625-0.20703 0.33594-0.42969 0.51172-0.65234 0.22266-0.28125 0.44922-0.5625 0.70312-0.85938 0.20703-0.23828 0.43359-0.49219 0.66406-0.73828 0.27344-0.30078 0.55469-0.60156 0.85938-0.91797 0.26562-0.27344 0.55078-0.55469 0.83984-0.83594 0.32422-0.31641 0.66406-0.64062 1.0234-0.97266 0.32031-0.29688 0.65625-0.60156 1.0039-0.90625 0.38672-0.33984 0.79297-0.6875 1.2109-1.0391 0.375-0.31641 0.76172-0.63281 1.1641-0.95703 0.45312-0.36328 0.9375-0.73828 1.4297-1.1133 0.43359-0.33203 0.87109-0.66406 1.3359-1.0039 0.52344-0.38281 1.082-0.77344 1.6406-1.168 0.49219-0.34766 0.98438-0.69141 1.5078-1.043 0.60547-0.40625 1.2578-0.82422 1.9023-1.2383 0.54297-0.35156 1.0781-0.69922 1.6523-1.0547 0.70312-0.43359 1.457-0.875 2.2031-1.3164 0.59375-0.35156 1.1641-0.69922 1.7891-1.0508 0.84766-0.48438 1.7617-0.97266 2.6641-1.4609 0.58594-0.31641 1.1406-0.63281 1.75-0.95313 1.1992-0.62891 2.4766-1.2656 3.7695-1.9023 0.38281-0.1875 0.73438-0.375 1.125-0.56641 1.6523-0.79687 3.3867-1.6016 5.1875-2.4062 2.2227 3.8711 4.6055 7.7617 7.0273 11.656 0.41406 0.66406 0.77734 1.3203 1.1953 1.9844 3.082 4.8945 6.3047 9.793 9.668 14.691-3.3672 4.8906-6.5898 9.7852-9.668 14.688-0.41016 0.65234-0.76953 1.2969-1.1719 1.9453-2.4258 3.9062-4.8203 7.8125-7.0508 11.699-1.8047-0.80859-3.5469-1.6133-5.1992-2.4141-0.30078-0.14453-0.56641-0.28516-0.86328-0.43359zm21.918-154.67c0.10156-0.66797 0.25-1.3281 0.44141-1.9766 0.074219-0.27344 0.13281-0.64844 0.21484-0.87891 0.17188-0.57031 0.46094-1.0977 0.84766-1.5508 0.42578-0.35156 0.91406-0.61719 1.4375-0.78516 0.18359-0.070313 0.41797-0.12891 0.62891-0.19531h0.003906c0.66797-0.19531 1.3438-0.34766 2.0312-0.45312 0.30078-0.050781 0.59375-0.10156 0.92578-0.14062 1.2891-0.15625 2.5898-0.23828 3.8906-0.24609l0.16797-0.007813c1.5859-0.003906 3.4219 0.097656 5.4219 0.28516 0.23438 0.023438 0.44922 0.035157 0.6875 0.058594 1.9648 0.20312 4.1484 0.53125 6.5 0.96094 0.375 0.070313 0.75 0.13672 1.1367 0.21484 2.3867 0.46484 4.9648 1.0586 7.7383 1.8008 0.4375 0.11719 0.89453 0.25 1.3438 0.375 2.8867 0.80078 5.9453 1.7344 9.2383 2.8711 0.33984 0.11719 0.70703 0.26172 1.0508 0.37891 1.4688 0.51562 3.125 1.207 4.6719 1.7969-1.1562 4.2812-2.2148 8.6875-3.25 13.117-0.17969 0.76562-0.38672 1.4922-0.55859 2.2617-1.2812 5.6406-2.4648 11.379-3.5469 17.219-5.8359 1.0742-11.57 2.2539-17.207 3.5469-0.78516 0.17969-1.5273 0.39062-2.3125 0.57422-4.418 1.0312-8.8125 2.0859-13.078 3.2422-0.35938-0.94922-0.76953-1.9453-1.1016-2.8633-0.61719-1.6992-1.1992-3.3594-1.7266-4.957-0.625-1.8906-1.1914-3.7148-1.6992-5.4609-0.42188-1.4531-0.83594-2.8945-1.1797-4.25-0.42188-1.6602-0.78125-3.2227-1.1016-4.7383-0.25781-1.2148-0.52344-2.4414-0.72266-3.5664-0.25-1.4297-0.43359-2.7422-0.59375-4.0273-0.125-0.97656-0.26953-1.9922-0.34766-2.8828-0.10547-1.207-0.14453-2.2695-0.17578-3.3203-0.023438-0.74219-0.074219-1.5469-0.0625-2.2148 0.015624-0.98828 0.089843-1.8086 0.16406-2.6289 0.035156-0.51953 0.054688-1.1133 0.12109-1.5586zm1.7852 164.43c-0.92578-0.32422-1.7773-0.66797-2.6836-0.99609 2.0703-3.5586 4.0391-7.1016 6.2812-10.676 0.14453-0.23047 0.30078-0.46094 0.44531-0.69141 1.9141-3.0352 4.0508-6.0703 6.082-9.1094 0.50391 0.67578 1.0508 1.3477 1.5586 2.0234 1.6289 2.1602 3.3047 4.3125 4.9883 6.4727 1.1758 1.5078 2.2852 3.0156 3.4844 4.5234-0.68359 1.0508-1.2422 2.0117-1.8984 3.0469-1.4766 2.3164-2.8945 4.5898-4.2539 6.8164-0.50781 0.83594-1.1055 1.7383-1.5938 2.5586-1.5625-0.46484-3.1172-0.93359-4.6406-1.418-2.6367-0.83594-5.2539-1.6758-7.7695-2.5547zm31.418-111.6c1.668-0.35156 3.3672-0.67188 5.0547-1.0078-0.125 0.84766-0.21484 1.7266-0.33203 2.5781-0.37109 2.6367-0.69922 5.3008-1.0312 7.9727-0.23828 1.9258-0.52344 3.8086-0.74219 5.7461-1.2148 0.25781-2.2852 0.54297-3.4727 0.80469-2.7109 0.60156-5.3477 1.2109-7.9062 1.8359-0.93359 0.22656-1.9766 0.4375-2.8867 0.66797-0.78125-1.4492-1.5547-2.8867-2.2969-4.3164-1.2773-2.457-2.5312-4.9023-3.6875-7.3008-0.42188-0.87109-0.77734-1.707-1.1836-2.5703 1.793-0.47266 3.582-0.94922 5.4062-1.4023 4.2891-1.0625 8.6484-2.0664 13.078-3.0078zm-2.0391 34.734-0.34766-0.55859c-0.28516-0.46094-0.51172-0.875-0.79297-1.332 0.47656-0.11328 0.89453-0.23828 1.3789-0.35156l0.95312-0.22266c0.70703-0.16406 1.4922-0.3125 2.207-0.47266-0.074219 0.94141-0.14844 1.8906-0.21875 2.832-0.62109 0.71875-1.2383 1.4414-1.8477 2.1602-0.42969-0.67578-0.91797-1.3945-1.332-2.0586zm-51.926-114.23c8.8516-7.8203 20.465-11.773 32.246-10.973 15.988 0.54297 31.754 3.8984 46.574 9.9141-0.45313 1.207-0.86719 2.5469-1.3125 3.7812-0.86328 2.3906-1.707 4.8164-2.5352 7.3086-0.44531 1.332-0.92578 2.5547-1.3594 3.9141-0.74219-0.27734-1.4297-0.47266-2.1602-0.73828-1.6719-0.60156-3.293-1.1406-4.918-1.6797-2.1055-0.69531-4.1797-1.3555-6.207-1.9414-1.5977-0.46094-3.1523-0.87891-4.6992-1.2734-1.9453-0.49609-3.8359-0.93359-5.6914-1.3242-1.4883-0.3125-2.9492-0.60156-4.3789-0.84375-1.7852-0.30078-3.4922-0.52734-5.1797-0.72266-1.3398-0.15234-2.6797-0.30859-3.9531-0.39453-1.6328-0.10938-3.1602-0.11719-4.6836-0.11719-1.1602 0.003907-2.3398-0.019531-3.4297 0.050781-1.4922 0.09375-2.8438 0.3125-4.1992 0.53125-0.93359 0.14844-1.9219 0.25-2.7891 0.45703h-0.003906c-1.3086 0.33984-2.5859 0.78125-3.8242 1.3203-0.63281 0.25781-1.3594 0.4375-1.9414 0.73438h0.003907c-1.6289 0.80469-3.1211 1.8633-4.4258 3.1289-4.25 5.0391-6.4883 11.469-6.2812 18.059 0.39844 18.168 4.5898 36.051 12.301 52.504 4.2969 10.105 9.1836 19.953 14.629 29.492 3.9961 7.0508 8.75 14.699 14.125 22.738 2.4453 3.6445 5.0195 7.3398 7.7305 11.094-0.070313 3.5938-0.11328 7.2031-0.11328 10.84 0 4.5352 0.070313 9.0273 0.17578 13.504 0.011718 0.58203 0.027344 1.1641 0.042968 1.7461-1.1992-1.5195-2.4219-3.0352-3.5938-4.5586-0.90625-1.1758-1.8281-2.3555-2.7188-3.5312-2.8516-3.7695-5.6328-7.5352-8.2852-11.277-0.10156-0.14453-0.21094-0.28906-0.3125-0.42969-8.5781-12.074-16.461-24.621-23.613-37.59-4.9688-8.9883-9.4531-18.238-13.43-27.711-16.367-39.434-17.016-70.781-1.7891-86.012zm0 311.71c-14.293-14.293-14.598-42.777-1.0625-78.82 1.207 0.45312 2.5469 0.86719 3.7812 1.3125 2.3906 0.86328 4.8164 1.707 7.3086 2.5352 1.332 0.44531 2.5547 0.92578 3.9141 1.3594-0.27734 0.74219-0.47656 1.4336-0.74219 2.168-0.59766 1.6523-1.1289 3.2617-1.6641 4.875-0.70703 2.1328-1.375 4.2344-1.9688 6.2891-0.45312 1.5625-0.85938 3.082-1.2461 4.5977-0.50781 1.9883-0.95703 3.9258-1.3555 5.8242-0.30078 1.4414-0.57812 2.8555-0.81641 4.2383-0.3125 1.8438-0.54687 3.6055-0.74609 5.3438-0.14844 1.2891-0.29688 2.5742-0.37891 3.8047-0.11328 1.6875-0.125 3.2656-0.11719 4.832 0.003906 1.1133-0.019531 2.25 0.046875 3.3008h0.003906c0.10938 1.4492 0.29297 2.8945 0.54688 4.3281 0.14453 0.89453 0.23828 1.8438 0.44141 2.6719 0.34766 1.3438 0.80078 2.6523 1.3516 3.9258 0.24609 0.60156 0.41797 1.293 0.70312 1.8477 0.80859 1.6328 1.8633 3.1289 3.1328 4.4336 1.1836 1.1523 2.5273 2.1289 3.9883 2.8984 0.48828 0.26562 1.0898 0.44141 1.6172 0.67969 1.1289 0.52734 2.2969 0.96875 3.4922 1.3242 0.72656 0.20312 1.5391 0.32422 2.3164 0.48438 1.2656 0.27344 2.5469 0.48438 3.832 0.62891 0.91406 0.09375 1.8867 0.12891 2.8516 0.17188 0.85938 0.039063 1.6367 0.15234 2.5391 0.15234 0.40625 0 0.90234-0.089844 1.3164-0.097656 2.4141-0.046875 4.9766-0.24609 7.6523-0.56641 0.69922-0.082032 1.3398-0.10156 2.0547-0.20703 3.4453-0.48828 7.082-1.2031 10.883-2.1172 0.95312-0.23047 1.9609-0.53906 2.9336-0.79688 2.9414-0.76953 5.9492-1.6445 9.0625-2.6562 1.3789-0.44922 2.7695-0.93359 4.1797-1.4258 1.2656-0.44531 2.4727-0.80078 3.7617-1.2852 0.43359 1.3594 0.91406 2.582 1.3594 3.9141 0.83203 2.4922 1.6719 4.918 2.5352 7.3086 0.44531 1.2344 0.85547 2.5742 1.3125 3.7812-36.047 13.535-64.527 13.23-78.82-1.0586zm44.555-65.32c5.6406 1.2812 11.379 2.4648 17.219 3.5469 1.0742 5.8359 2.2539 11.57 3.5469 17.207 0.17969 0.78516 0.39062 1.5273 0.57422 2.3125 1.0312 4.418 2.0859 8.8125 3.2422 13.078-0.95312 0.36328-1.9531 0.76953-2.875 1.1055-1.6914 0.61328-3.3438 1.1953-4.9336 1.7188-1.9062 0.62891-3.7383 1.1992-5.5 1.707-1.4375 0.41797-2.8672 0.82422-4.2109 1.1719-1.6797 0.42969-3.2656 0.78906-4.7969 1.1172-1.1914 0.25391-2.3984 0.51562-3.5039 0.71094-1.4609 0.25781-2.8008 0.44141-4.1055 0.60547-0.94922 0.11719-1.9336 0.26172-2.8008 0.33984-1.2422 0.10938-2.3398 0.14844-3.418 0.17969-0.70703 0.019531-1.4805 0.070312-2.1172 0.058593-1.0273-0.015625-1.8867-0.089843-2.7344-0.17188-0.47656-0.046875-1.0391-0.0625-1.457-0.125v-0.003906c-0.69531-0.10547-1.3828-0.25781-2.0547-0.45703-0.25-0.070313-0.59375-0.12109-0.80469-0.19531l-0.003906-0.003906c-1.2031-0.25391-2.1406-1.1953-2.4023-2.3984-0.082032-0.23047-0.14062-0.60547-0.21484-0.87891-0.19141-0.64844-0.33594-1.3086-0.44141-1.9727-0.066406-0.44531-0.085938-1.043-0.13281-1.5547-0.074219-0.82031-0.14844-1.6406-0.16406-2.6289-0.011719-0.66797 0.039062-1.4727 0.0625-2.2148 0.03125-1.0508 0.070312-2.1133 0.17578-3.3203 0.078125-0.89062 0.22266-1.9062 0.34766-2.8828 0.16406-1.2812 0.34375-2.5938 0.59375-4.0273 0.19922-1.1211 0.46484-2.3516 0.72266-3.5664 0.32031-1.5156 0.67969-3.0781 1.1016-4.7383 0.34766-1.3555 0.76172-2.7969 1.1797-4.25 0.50781-1.75 1.0742-3.5703 1.6992-5.4609 0.52734-1.5977 1.1094-3.2578 1.7266-4.957 0.33203-0.91797 0.74219-1.9141 1.1016-2.8633 4.2812 1.1562 8.6875 2.2148 13.117 3.25 0.76953 0.17969 1.4961 0.38672 2.2656 0.5625zm111.3 11.801c4.5352 0 9.0273-0.070313 13.504-0.17578 0.58203-0.011718 1.1641-0.027344 1.7461-0.042968-1.5195 1.1992-3.0352 2.4219-4.5586 3.5938-1.1758 0.90625-2.3555 1.8281-3.5312 2.7188-3.7695 2.8516-7.5352 5.6328-11.277 8.2852-0.14453 0.10156-0.28906 0.21094-0.42969 0.3125-5.7148 4.043-11.449 7.832-17.172 11.469-1.7695 1.125-3.5352 2.168-5.3047 3.2539-2.4141 1.4805-4.8125 2.8477-7.2188 4.2461-0.32812-0.90625-0.67187-1.7617-0.99609-2.6875-0.875-2.5039-1.7109-5.1133-2.543-7.75-0.48438-1.5312-0.95312-3.0898-1.4219-4.6602 1.2148-0.72266 2.4961-1.5352 3.7422-2.3008 0.97656-0.59766 1.9375-1.1797 2.9336-1.8008 3.3789-2.1172 6.8242-4.3242 10.375-6.6992l0.21875-0.14062 0.003906-0.003906c3.6484-2.4414 7.3477-5.0156 11.098-7.7305 0.56641 0.011719 1.1406-0.011718 1.707-0.003906 3.0273 0.050781 6.0547 0.11719 9.125 0.11719zm135.1 26.852h-0.003906c-0.10156 0.66406-0.25 1.3242-0.44141 1.9727-0.074219 0.27344-0.13281 0.64844-0.21484 0.87891-0.25781 1.2031-1.1992 2.1445-2.4023 2.4023-0.20703 0.074219-0.54688 0.125-0.78906 0.19141-0.67969 0.20313-1.375 0.35547-2.0781 0.46094-0.41797 0.0625-0.97266 0.078125-1.4453 0.125-0.84766 0.078125-1.7109 0.15625-2.7422 0.17188-0.64062 0.007813-1.4141-0.039063-2.1211-0.058594-1.0781-0.03125-2.1719-0.070312-3.4102-0.17969-0.87109-0.078125-1.8633-0.21875-2.8164-0.33984-1.3008-0.16406-2.6328-0.34766-4.0859-0.60547-1.1094-0.19531-2.3203-0.46094-3.5195-0.71484-1.5273-0.32422-3.1055-0.68359-4.7812-1.1133-1.3438-0.34375-2.7734-0.75391-4.2148-1.1719-1.7656-0.51172-3.6016-1.082-5.5078-1.7109-1.5781-0.52344-3.2227-1.0977-4.8984-1.707-0.92969-0.33594-1.9375-0.75-2.8984-1.1133 1.1523-4.2695 2.2109-8.6602 3.2422-13.078 0.18359-0.78125 0.39453-1.5234 0.57422-2.3125 1.2812-5.6367 2.4648-11.371 3.5469-17.207 5.8359-1.0742 11.57-2.2539 17.207-3.5469 0.78516-0.17969 1.5273-0.39062 2.3125-0.57422 4.418-1.0312 8.8125-2.0859 13.078-3.2422 0.35938 0.94922 0.76953 1.9453 1.1016 2.8633 0.61719 1.6992 1.1992 3.3594 1.7266 4.957 0.625 1.8906 1.1914 3.7148 1.6992 5.4609 0.42188 1.4531 0.83594 2.8945 1.1797 4.25 0.42188 1.6602 0.78125 3.2227 1.1016 4.7383 0.25781 1.2148 0.52344 2.4414 0.72266 3.5664 0.25 1.4297 0.43359 2.7422 0.59375 4.0273 0.125 0.97656 0.26953 1.9922 0.34766 2.8828 0.10547 1.207 0.14453 2.2695 0.17578 3.3203 0.023437 0.74219 0.074218 1.5469 0.0625 2.2148-0.015626 0.98828-0.089844 1.8086-0.16406 2.6289-0.054687 0.51953-0.074219 1.1133-0.14062 1.5625zm-72.98-13.66c-1.4414-0.75-2.8945-1.5273-4.3555-2.3164 0.23047-0.91016 0.44141-1.9531 0.66797-2.8867 0.625-2.5586 1.2383-5.1953 1.8359-7.9062 0.26172-1.1875 0.54688-2.2578 0.80469-3.4727 1.8906-0.21094 3.7227-0.49219 5.5977-0.72266 2.7461-0.33984 5.4766-0.67578 8.1836-1.0586 0.83203-0.11719 1.6953-0.20703 2.5234-0.32812-0.33594 1.6875-0.65234 3.3867-1.0078 5.0547-0.9375 4.4336-1.9414 8.793-3.0117 13.078-0.45312 1.8203-0.92578 3.6094-1.4023 5.4062-0.86719-0.40625-1.7109-0.76562-2.5859-1.1875-2.3828-1.1484-4.8125-2.3984-7.25-3.6641zm-45.422 28.406c3.8867 2.4141 7.7734 4.7969 11.637 7.0156-0.80469 1.8008-1.6094 3.5391-2.4062 5.1875-0.19141 0.39062-0.375 0.74219-0.56641 1.125-0.63672 1.293-1.2734 2.5703-1.9023 3.7695-0.32031 0.60938-0.63281 1.1641-0.95312 1.75-0.48828 0.90234-0.98047 1.8164-1.4609 2.6641-0.35547 0.62109-0.70312 1.1953-1.0508 1.7891-0.44141 0.74609-0.88281 1.5-1.3164 2.2031-0.35547 0.57422-0.70312 1.1094-1.0547 1.6523-0.41406 0.64844-0.83203 1.2969-1.2383 1.9023-0.35156 0.52344-0.69531 1.0156-1.043 1.5078-0.39062 0.55859-0.78125 1.1172-1.168 1.6406-0.33984 0.46484-0.67188 0.90234-1.0039 1.3359-0.375 0.49219-0.74609 0.97266-1.1133 1.4297-0.32422 0.40234-0.64063 0.78906-0.95703 1.1641-0.35156 0.41797-0.69922 0.82813-1.0391 1.2109-0.30469 0.34766-0.60938 0.68359-0.90625 1.0039-0.33203 0.35938-0.65625 0.69531-0.97266 1.0234-0.28125 0.28906-0.5625 0.57422-0.83594 0.83984-0.3125 0.30469-0.61719 0.58594-0.91797 0.85937-0.25 0.22656-0.5 0.45703-0.74219 0.66406-0.29688 0.25391-0.57812 0.48047-0.85938 0.70312-0.21875 0.17578-0.44141 0.35547-0.65234 0.51172-0.26953 0.19922-0.51953 0.37109-0.77344 0.53906-0.1875 0.125-0.38672 0.26562-0.5625 0.375-0.25 0.15234-0.47266 0.27344-0.69922 0.39062-0.14844 0.078125-0.30859 0.17578-0.44922 0.24219h0.003906c-0.21094 0.097656-0.42578 0.18359-0.64844 0.25781-0.097657 0.035156-0.21484 0.089844-0.30469 0.11328-0.48047 0.16406-1 0.16406-1.4805 0-0.089843-0.027344-0.20703-0.082032-0.30469-0.11328-0.22266-0.074218-0.4375-0.16016-0.64844-0.25781-0.14063-0.066406-0.30078-0.16016-0.44922-0.24219-0.22656-0.12109-0.44922-0.23828-0.69922-0.39062-0.17578-0.10938-0.375-0.25-0.5625-0.375-0.25-0.16797-0.50391-0.33984-0.77344-0.53906-0.20703-0.15625-0.42969-0.33594-0.65234-0.51172-0.28125-0.22266-0.5625-0.44922-0.85938-0.70312-0.23828-0.20703-0.49219-0.43359-0.73828-0.66406-0.30078-0.27344-0.60156-0.55469-0.91797-0.85937-0.27344-0.26563-0.55469-0.55078-0.83594-0.83984-0.31641-0.32422-0.64062-0.66406-0.97266-1.0234-0.29688-0.32031-0.60156-0.65625-0.90625-1.0039-0.33984-0.38672-0.6875-0.79297-1.0391-1.2109-0.31641-0.375-0.63281-0.76172-0.95703-1.1641-0.36328-0.45312-0.73828-0.9375-1.1133-1.4297-0.33203-0.43359-0.66406-0.87109-1.0039-1.3359-0.38281-0.52344-0.77344-1.082-1.168-1.6406-0.34766-0.49219-0.69141-0.98438-1.043-1.5078-0.40625-0.60547-0.82422-1.2578-1.2383-1.9023-0.35156-0.54297-0.69922-1.0781-1.0547-1.6523-0.43359-0.70312-0.875-1.457-1.3164-2.2031-0.35156-0.59375-0.69922-1.1641-1.0508-1.7891-0.48438-0.84766-0.97266-1.7617-1.4609-2.6641-0.31641-0.58594-0.63281-1.1406-0.95313-1.75-0.62891-1.1992-1.2656-2.4766-1.9023-3.7695-0.1875-0.38281-0.375-0.73438-0.56641-1.125-0.79687-1.6523-1.6016-3.3867-2.4062-5.1875 3.8711-2.2227 7.7617-4.6055 11.656-7.0273 0.66406-0.41406 1.3203-0.77734 1.9844-1.1953 4.8945-3.082 9.793-6.3047 14.691-9.668 4.8906 3.3672 9.7852 6.5898 14.688 9.6641 0.67188 0.41797 1.3359 0.78906 2.0078 1.207zm-58.34-39.996-0.53516 0.33203c-0.46484 0.28906-0.88281 0.51562-1.3438 0.80078-0.11328-0.47656-0.23828-0.89453-0.35156-1.375l-0.22266-0.95312c-0.16406-0.70703-0.3125-1.4922-0.47266-2.207 0.94141 0.074219 1.8906 0.14844 2.832 0.21875 0.71875 0.62109 1.4414 1.2344 2.1602 1.8477-0.67578 0.42969-1.3984 0.92188-2.0664 1.3359zm83.379-3.1836c0.94531-0.070312 1.8906-0.14453 2.832-0.21875-0.16016 0.71875-0.30859 1.5039-0.47266 2.207l-0.22266 0.95312c-0.11328 0.48047-0.23438 0.89844-0.35156 1.375-0.46094-0.28125-0.87891-0.51172-1.3438-0.80078l-0.53516-0.33203c-0.66797-0.41797-1.3906-0.90625-2.0664-1.3359 0.71875-0.61328 1.4414-1.2266 2.1602-1.8477zm-41.734 119.66c-21.535 0-43.242-22.629-59.551-62.082l-0.003907 0.003907c-3.8828-9.5117-7.2539-19.223-10.098-29.094-1.7891-6.125-3.4023-12.508-4.9219-18.992-0.45312-1.9414-0.87109-3.9297-1.3008-5.8984-0.53906-2.4648-0.99609-5.0039-1.4961-7.5117 0.84766 0.125 1.7266 0.21484 2.5781 0.33203 2.6367 0.37109 5.3008 0.69922 7.9727 1.0312 1.9258 0.23828 3.8086 0.52344 5.7461 0.74219 0.38672 1.8203 0.79688 3.5156 1.1914 5.2734 0.28516 1.2578 0.5625 2.543 0.85156 3.7656 0.91797 3.8711 1.8555 7.6133 2.8281 11.125l0.054687 0.21875 0.003907 0.003906h0.003906c2.8906 10.594 6.3945 21.004 10.5 31.188 13.656 33.402 31.145 54.152 45.641 54.152 1.6172-0.027344 3.2227-0.28125 4.7695-0.75391 0.16406-0.046875 0.32422-0.074219 0.48828-0.125 1.6289-0.54297 3.1992-1.2461 4.6836-2.1094 0.24219-0.13672 0.48438-0.26172 0.72656-0.40625 1.6406-1.0039 3.2031-2.125 4.6758-3.3555 0.27344-0.22656 0.54297-0.45312 0.81641-0.69141 1.6523-1.4336 3.2227-2.9648 4.707-4.5742 0.25781-0.27734 0.51172-0.57031 0.76562-0.85547 1.6016-1.793 3.2031-3.7266 4.7969-5.8594 0.18359-0.24219 0.36328-0.50781 0.54297-0.75781 1.668-2.2812 3.3281-4.7031 4.9688-7.3359l0.0625-0.10938c1.6484-2.6523 3.2695-5.5039 4.8672-8.4922 0.14062-0.26562 0.28516-0.51172 0.42578-0.78125 1.543-2.9219 3.0508-6.0156 4.5312-9.2305 0.11719-0.25391 0.24219-0.47656 0.35938-0.73047 1.2656 0.65625 2.4727 1.1797 3.7305 1.8086 2.3398 1.1719 4.6445 2.2891 6.9375 3.3633 1.1953 0.55859 2.4375 1.2227 3.6211 1.7539-15.906 35.059-36.266 54.984-56.477 54.984zm155.86-64.559c-15.234 15.23-46.582 14.578-86.008-1.7852-9.4727-3.9805-18.723-8.4648-27.715-13.434-5.5977-3.0664-11.254-6.4375-16.918-9.9531-1.6797-1.043-3.3594-2.1445-5.0391-3.2227-2.1367-1.3711-4.2734-2.8516-6.4102-4.2812 0.69531-0.51953 1.3906-1.0859 2.0898-1.6094 2.1211-1.5977 4.2266-3.2422 6.3477-4.8945 1.5273-1.1875 3.0547-2.3164 4.5781-3.5312 1.5586 1.0156 3.0469 1.9219 4.5703 2.8828 1.0938 0.69141 2.1992 1.4023 3.2734 2.0664 3.3164 2.0469 6.5508 3.9844 9.6562 5.7461 0.125 0.070312 0.26562 0.16016 0.39062 0.23047l0.015625 0.007813c7.1914 4.0703 14.148 7.543 20.953 10.711 2.8555 1.332 5.7578 2.75 8.5195 3.9102h0.007813c4.5391 1.9023 8.9297 3.5469 13.207 5.0117 1.4609 0.5 2.832 0.88281 4.2578 1.332 2.7734 0.875 5.5078 1.707 8.1406 2.3867 1.5586 0.40234 3.0352 0.72266 4.5391 1.0547 2.375 0.52734 4.6836 0.98828 6.9102 1.3438 1.4375 0.23047 2.832 0.42578 4.2031 0.58594 2.1562 0.25 4.1953 0.38281 6.1797 0.45703 0.79688 0.027344 1.7109 0.18359 2.4805 0.18359 0.50781 0 0.94141-0.074219 1.4375-0.085938 0.90234-0.023438 1.75-0.089844 2.6094-0.15625l-0.003906 0.007812c1.5078-0.10937 3.0039-0.30078 4.4883-0.57031 0.78906-0.14453 1.5664-0.29297 2.3047-0.48047h0.003906c1.3164-0.34375 2.6016-0.78906 3.8516-1.3281 0.55859-0.23828 1.1641-0.43359 1.6797-0.70312 3.2461-1.5625 5.8594-4.1914 7.3984-7.4492 0.28516-0.55469 0.45312-1.2461 0.70312-1.8477 0.55469-1.2734 1.0039-2.582 1.3516-3.9258 0.19922-0.83203 0.29297-1.7812 0.44141-2.6719 0.25781-1.4336 0.4375-2.8789 0.54688-4.3281 0.066406-1.0508 0.042968-2.1875 0.046874-3.3008 0.007813-1.5664-0.003906-3.1445-0.11719-4.832-0.082031-1.2305-0.23438-2.5156-0.37891-3.8047-0.19922-1.7383-0.42969-3.5-0.74609-5.3438-0.23438-1.3828-0.51562-2.8008-0.81641-4.2383-0.39453-1.8984-0.84766-3.8359-1.3555-5.8242-0.38672-1.5117-0.79688-3.0352-1.2461-4.5977-0.59375-2.0547-1.2617-4.1562-1.9688-6.2891-0.53516-1.6133-1.0664-3.2188-1.6641-4.875-0.26562-0.73438-0.46094-1.4258-0.74219-2.168 1.3594-0.43359 2.582-0.91406 3.9141-1.3594 2.4922-0.83203 4.918-1.6719 7.3086-2.5352 1.2344-0.44531 2.5742-0.85547 3.7812-1.3125 13.539 36.043 13.23 64.527-1.0586 78.82zm2.4805-96.305c-9.5117 3.8828-19.223 7.2539-29.094 10.102-14.227 4.1133-28.676 7.4141-43.277 9.8828-10.359 1.7812-21.211 3.2461-32.246 4.3633l-0.019531 0.003906c-5.1641 0.52344-10.395 0.96875-15.695 1.3398-8.3047 0.58984-16.676 0.98437-24.875 1.1797-8.6914 0.19922-17.562 0.19922-26.258 0-8.2031-0.19531-16.574-0.59375-24.879-1.1797-5.2969-0.37109-10.535-0.82031-15.715-1.3438-11.035-1.1133-21.887-2.582-32.246-4.3633-14.602-2.4688-29.051-5.7695-43.277-9.8828-9.8711-2.8477-19.582-6.2188-29.09-10.102-39.453-16.309-62.082-38.016-62.082-59.551 0-20.211 19.926-40.57 54.984-56.48 0.53516 1.1875 1.2031 2.4375 1.7656 3.6406 1.0703 2.2852 2.1836 4.582 3.3516 6.9102 0.62891 1.2578 1.1562 2.4648 1.8125 3.7344-0.25781 0.11719-0.47656 0.24219-0.73047 0.35937-3.2148 1.4805-6.3125 2.9922-9.2305 4.5312-0.26562 0.14063-0.51562 0.28516-0.78125 0.42578-2.9883 1.5977-5.8398 3.2227-8.4922 4.8672l-0.10938 0.0625c-2.6328 1.6406-5.0586 3.3008-7.3359 4.9688-0.25 0.17969-0.51172 0.36328-0.75781 0.54297-2.1328 1.5938-4.0664 3.1914-5.8594 4.7969-0.28516 0.25391-0.57812 0.51172-0.85547 0.76562l-0.003906 0.003906c-1.6094 1.4844-3.1367 3.0547-4.5742 4.707-0.23438 0.27344-0.46484 0.54297-0.69141 0.81641-1.2305 1.4727-2.3516 3.0352-3.3516 4.6758-0.14844 0.24219-0.26953 0.48438-0.40625 0.72656h-0.003906c-0.85938 1.4844-1.5664 3.0547-2.1094 4.6875-0.050781 0.16406-0.078125 0.32422-0.125 0.48828l0.003906-0.003907c-0.47656 1.5469-0.73047 3.1562-0.75781 4.7734 0 14.496 20.75 31.984 54.152 45.641 10.184 4.1016 20.598 7.6094 31.191 10.5 7.8164 2.1641 16.59 4.2148 26.07 6.0938 5.1328 1.0156 10.449 1.9492 15.953 2.8008 5.4531 0.85156 11.059 1.6289 16.859 2.3086 11.684 1.375 22.891 2.3086 34.262 2.8516v0.003907c17.445 0.875 34.93 0.875 52.379 0 11.371-0.54297 22.574-1.4766 34.25-2.8516 5.8086-0.67969 11.414-1.457 16.871-2.3086 5.4883-0.85937 10.816-1.7852 15.949-2.8008 9.4805-1.875 18.25-3.9297 26.07-6.0938l0.003907-0.003906-0.003907-0.003906c10.594-2.8867 21.004-6.3945 31.188-10.496 33.402-13.656 54.152-31.148 54.152-45.641-0.027344-1.6211-0.28125-3.2266-0.75391-4.7734-0.046875-0.16406-0.074219-0.32422-0.125-0.48828v0.003907c-0.54297-1.6328-1.2461-3.2031-2.1094-4.6875-0.13672-0.24219-0.26172-0.48438-0.40625-0.72656-1.0039-1.6406-2.125-3.2031-3.3555-4.6758-0.22656-0.27344-0.45312-0.54297-0.69141-0.81641-1.4336-1.6523-2.9648-3.2227-4.5742-4.707-0.27734-0.25781-0.57031-0.51172-0.85547-0.76562-1.793-1.6016-3.7266-3.2031-5.8594-4.7969-0.24219-0.18359-0.50781-0.36328-0.75781-0.54297-2.2812-1.668-4.7031-3.3281-7.3359-4.9688l-0.10938-0.0625c-2.6523-1.6484-5.5039-3.2695-8.4922-4.8672-0.26562-0.14062-0.51172-0.28516-0.78125-0.42578-2.9219-1.543-6.0156-3.0508-9.2305-4.5312-0.25391-0.11719-0.47656-0.24219-0.73047-0.35938 0.65625-1.2656 1.1797-2.4727 1.8086-3.7305 1.1719-2.3398 2.2891-4.6445 3.3633-6.9375 0.55859-1.1953 1.2227-2.4375 1.7539-3.6211 35.059 15.906 54.984 36.27 54.984 56.48 0 21.535-22.629 43.242-62.078 59.551z"></path>
  <path d="m439.36 400c0-10.441-4.1484-20.453-11.527-27.832-7.3828-7.3828-17.395-11.531-27.832-11.531-10.441 0-20.453 4.1484-27.832 11.531-7.3828 7.3789-11.531 17.391-11.531 27.832 0 10.438 4.1484 20.449 11.531 27.832 7.3789 7.3789 17.391 11.527 27.832 11.527 10.434-0.011719 20.438-4.1641 27.816-11.543s11.531-17.383 11.543-27.816zm-62.977 0c0-6.2656 2.4883-12.273 6.918-16.699 4.4258-4.4297 10.434-6.918 16.699-6.918 6.2617 0 12.27 2.4883 16.699 6.918 4.4258 4.4258 6.9141 10.434 6.9141 16.699 0 6.2617-2.4883 12.27-6.9141 16.699-4.4297 4.4258-10.438 6.9141-16.699 6.9141-6.2617-0.003906-12.266-2.4961-16.691-6.9219-4.4297-4.4297-6.918-10.43-6.9258-16.691z"></path>
 </g>

      </g>
     <g id="IconSvg_iconCarrier">
      <g xmlns="http://www.w3.org/2000/svg">
  <path d="m636.16 400c0-27.137-22.922-52.172-64.711-71.012 16.227-42.871 14.73-76.793-4.4609-95.977-19.184-19.188-53.094-20.684-95.973-4.457-18.844-41.793-43.879-64.719-71.016-64.719s-52.172 22.922-71.012 64.711c-42.871-16.227-76.785-14.727-95.977 4.4609-19.191 19.184-20.688 53.102-4.457 95.973-41.793 18.844-64.719 43.879-64.719 71.02 0 27.137 22.922 52.172 64.711 71.012-16.227 42.871-14.73 76.789 4.4609 95.977h0.003907c11.719 10.855 27.344 16.492 43.293 15.621 18.07-0.625 35.887-4.4492 52.625-11.293 18.848 41.871 43.906 64.844 71.07 64.844s52.223-22.973 71.07-64.84h-0.003906c16.738 6.8438 34.555 10.668 52.625 11.289 15.953 0.86719 31.574-4.7695 43.297-15.621 19.191-19.188 20.688-53.105 4.4609-95.977 41.785-18.84 64.711-43.875 64.711-71.012zm-78.902-25.359c1.293 0.63672 2.5703 1.2734 3.7695 1.9023 0.60938 0.32031 1.1641 0.63281 1.75 0.95312 0.90234 0.48828 1.8164 0.98047 2.6641 1.4609 0.62109 0.35547 1.1953 0.70312 1.7891 1.0508 0.74609 0.44141 1.5 0.88281 2.2031 1.3164 0.57422 0.35547 1.1094 0.70312 1.6523 1.0547 0.64844 0.41406 1.2969 0.83203 1.9023 1.2383 0.52344 0.35156 1.0156 0.69531 1.5078 1.043 0.55859 0.39062 1.1172 0.78125 1.6406 1.168 0.46484 0.33984 0.90234 0.67188 1.3359 1.0039 0.49219 0.375 0.97266 0.74609 1.4297 1.1133 0.40234 0.32422 0.78906 0.64063 1.1641 0.95703 0.41797 0.35156 0.82812 0.69922 1.2109 1.0391 0.34766 0.30469 0.68359 0.60938 1.0039 0.90625 0.35938 0.33203 0.69531 0.65625 1.0234 0.97266 0.28906 0.28125 0.57422 0.5625 0.83984 0.83594 0.30469 0.3125 0.58594 0.61719 0.85938 0.91797 0.22656 0.25 0.45703 0.5 0.66406 0.73828 0.25391 0.29688 0.48047 0.57812 0.70312 0.85938 0.17578 0.21875 0.35547 0.44141 0.51172 0.65234 0.19922 0.26953 0.37109 0.51953 0.53906 0.77344 0.125 0.1875 0.26562 0.38672 0.375 0.5625 0.15234 0.25 0.27344 0.47266 0.39062 0.69922 0.078125 0.14844 0.17578 0.30859 0.24219 0.44922h0.007812c0.09375 0.20703 0.17969 0.42578 0.25391 0.64453 0.035156 0.097656 0.089844 0.21484 0.11328 0.30469 0.16406 0.48047 0.16406 1 0 1.4805-0.027344 0.089844-0.078126 0.20703-0.11328 0.30469v0.003906c-0.074218 0.21875-0.16016 0.43359-0.25391 0.64453-0.0625 0.13672-0.16016 0.29297-0.23438 0.44141-0.12109 0.23047-0.24219 0.46094-0.39844 0.71484-0.10547 0.16797-0.23438 0.35547-0.35547 0.53516-0.17578 0.26172-0.35547 0.52344-0.5625 0.80859-0.14844 0.19922-0.32031 0.41016-0.48828 0.62109-0.22656 0.28906-0.46484 0.57812-0.72656 0.88672-0.19922 0.23047-0.41797 0.47266-0.64062 0.71484-0.28125 0.30859-0.57422 0.625-0.89062 0.95313-0.25 0.25781-0.52344 0.52734-0.79688 0.79297-0.33984 0.33594-0.69922 0.67578-1.0781 1.0234-0.30469 0.28125-0.62109 0.56641-0.94922 0.85547-0.40625 0.35938-0.83203 0.72266-1.2734 1.0938-0.35547 0.30078-0.72266 0.60156-1.1055 0.90625-0.47656 0.38281-0.98047 0.77344-1.4961 1.1641-0.41406 0.31641-0.82812 0.63281-1.2695 0.95312-0.55078 0.40234-1.1367 0.8125-1.7266 1.2266-0.46484 0.32422-0.92578 0.64844-1.418 0.98047-0.64453 0.43359-1.3359 0.875-2.0273 1.3203-0.50781 0.32422-1 0.64844-1.5312 0.97656-0.74609 0.46094-1.5469 0.92969-2.3438 1.3984-0.55078 0.32422-1.0781 0.64453-1.6562 0.97266-0.89453 0.50781-1.8555 1.0273-2.8125 1.543-0.53906 0.29297-1.0508 0.58203-1.6094 0.875-1.2812 0.67188-2.6406 1.3516-4.0273 2.0352-0.29688 0.14844-0.56641 0.28906-0.86719 0.4375-1.6562 0.80078-3.3945 1.6055-5.1992 2.4141-2.2305-3.8867-4.625-7.793-7.0508-11.699-0.40625-0.65234-0.76172-1.2969-1.1719-1.9453-3.082-4.8984-6.3047-9.793-9.668-14.688 3.3672-4.8906 6.5898-9.7852 9.6641-14.688 0.42188-0.67188 0.79297-1.3359 1.2109-2.0078 2.4141-3.8867 4.7969-7.7734 7.0156-11.637 1.8008 0.80469 3.5391 1.6094 5.1875 2.4062 0.38281 0.18359 0.73438 0.37109 1.1172 0.5625zm-31.703 63.141c-1.5312 0.48438-3.0898 0.95703-4.6602 1.4219-0.48828-0.82031-1.0859-1.7227-1.5938-2.5586-1.3555-2.2305-2.7734-4.5039-4.2539-6.8164-0.66016-1.0352-1.2188-1.9961-1.8984-3.0469 1.1719-1.4688 2.2578-2.9453 3.4062-4.418 1.7188-2.207 3.4336-4.4023 5.0938-6.6094 0.5-0.66406 1.0391-1.3281 1.5352-1.9922 2.0312 3.0391 4.168 6.0703 6.082 9.1094 0.14453 0.23047 0.30078 0.46094 0.44531 0.69141 2.2422 3.5742 4.2109 7.1172 6.2812 10.676-0.90625 0.32812-1.7617 0.67188-2.6875 0.99609-2.5039 0.875-5.1133 1.7148-7.75 2.5469zm-22.812 6.3125c-0.70703 0.16406-1.4922 0.3125-2.207 0.47266 0.074219-0.94141 0.14844-1.8906 0.21875-2.832 0.62109-0.71875 1.2344-1.4414 1.8477-2.1602 0.42578 0.67578 0.91797 1.3984 1.3359 2.0664l0.33203 0.53516c0.28906 0.46484 0.51562 0.88281 0.80078 1.3438-0.47656 0.11328-0.89453 0.23828-1.375 0.35156zm53.113-199.95c15.23 15.23 14.578 46.578-1.7852 86.008v-0.003906c-3.9805 9.4727-8.4648 18.723-13.434 27.715-7.1484 12.969-15.035 25.516-23.609 37.59l-0.003906 0.011719c-6.0625 8.5703-12.691 17.277-19.707 25.875l-0.007812 0.015625c-3.2812 4.0195-6.668 8.0352-10.156 12.047-4.5625 5.25-9.1992 10.344-13.82 15.273-0.36328 0.38672-0.72266 0.78125-1.0859 1.168-4.4453 0.66797-8.9336 1.3164-13.637 1.8672-3.8203 0.44922-7.543 0.78516-11.281 1.1367 0.92969-0.91797 1.8555-1.8359 2.7695-2.7539 5.9219-5.9219 11.832-12.129 18.062-18.98 7.6523-8.4141 14.914-16.996 22.207-26.234 3.625-4.5898 7.0547-9.1094 10.289-13.559 3.2734-4.4883 6.375-8.9102 9.2969-13.258l0.003906-0.007812c5.375-8.0352 10.125-15.684 14.121-22.73l0.003906-0.007813h-0.003906c5.4453-9.5312 10.328-19.375 14.625-29.48v-0.007813c13.965-33.27 16.27-60.305 6.0195-70.555-1.2617-1.2109-2.6953-2.2266-4.2617-3.0117-0.52344-0.27344-1.1328-0.47266-1.6992-0.71094-1.2344-0.53906-2.5156-0.98047-3.8203-1.3203-0.75391-0.19531-1.5508-0.34375-2.3555-0.49219-1.4531-0.26172-2.918-0.44922-4.3906-0.55859-0.89453-0.070313-1.7812-0.14063-2.7227-0.16406-0.47656-0.011719-0.89453-0.082031-1.3828-0.082031-0.73438 0-1.6133 0.14844-2.375 0.17578-2.043 0.070313-4.1484 0.21094-6.3711 0.46875-1.3086 0.15234-2.6367 0.33984-4.0039 0.55859-2.3164 0.36719-4.7148 0.84375-7.1836 1.3984-1.418 0.31641-2.8125 0.61719-4.2773 0.99609-2.7383 0.70703-5.5859 1.5664-8.4766 2.4844-1.3281 0.42188-2.6055 0.77344-3.9648 1.2422-4.2227 1.4492-8.5586 3.0703-13.031 4.9453l-0.24219 0.089844h-0.003906c-10.105 4.2969-19.953 9.1836-29.488 14.629-7.0508 3.9961-14.699 8.75-22.738 14.125-3.6445 2.4453-7.3398 5.0195-11.094 7.7305-8.0781-0.15625-16.285-0.12891-24.344 0.0625-0.58203 0.011718-1.1641 0.027344-1.7461 0.042968 1.5195-1.1992 3.0352-2.4219 4.5586-3.5938 1.1758-0.90625 2.3555-1.8281 3.5312-2.7188 3.7695-2.8516 7.5352-5.6328 11.277-8.2852 0.14453-0.10156 0.28906-0.21094 0.42969-0.3125 12.07-8.5781 24.621-16.461 37.586-23.613 8.9922-4.9688 18.242-9.4531 27.711-13.43 39.426-16.367 70.777-17.02 86.012-1.7891zm-181.78-0.27734c0.19141-0.39063 0.375-0.74219 0.56641-1.125 0.63672-1.293 1.2734-2.5703 1.9023-3.7695 0.32031-0.60938 0.63281-1.1641 0.95312-1.75 0.48828-0.90234 0.98047-1.8164 1.4609-2.6641 0.35547-0.62109 0.70312-1.1953 1.0508-1.7891 0.44141-0.74609 0.88281-1.5 1.3164-2.2031 0.35547-0.57422 0.70312-1.1094 1.0547-1.6523 0.41406-0.64844 0.83203-1.2969 1.2383-1.9023 0.35156-0.52344 0.69531-1.0156 1.043-1.5078 0.39062-0.55859 0.78125-1.1172 1.168-1.6406 0.33984-0.46484 0.67188-0.90234 1.0039-1.3359 0.375-0.49219 0.74609-0.97266 1.1133-1.4297 0.32422-0.40234 0.64063-0.78906 0.95703-1.1641 0.35156-0.41797 0.69922-0.82812 1.0391-1.2109 0.30469-0.34766 0.60938-0.68359 0.90625-1.0039 0.33203-0.35938 0.65625-0.69531 0.97266-1.0234 0.28125-0.28906 0.5625-0.57422 0.83594-0.83984 0.3125-0.30469 0.61719-0.58594 0.91797-0.85938 0.25-0.22656 0.5-0.45703 0.73828-0.66406 0.29688-0.25391 0.57812-0.48047 0.85938-0.70312 0.21875-0.17578 0.44141-0.35547 0.65234-0.51172 0.26953-0.19922 0.51953-0.37109 0.77344-0.53906 0.1875-0.125 0.38672-0.26562 0.5625-0.375 0.25-0.15234 0.47266-0.27344 0.69922-0.39062 0.14844-0.078125 0.30859-0.17578 0.44922-0.24219v-0.007812c0.20703-0.097656 0.42578-0.18359 0.64453-0.25391 0.097656-0.035156 0.21484-0.089844 0.30469-0.11328v-0.003906c0.48047-0.16406 1-0.16406 1.4805 0 0.089844 0.027344 0.20703 0.082032 0.30469 0.11328l0.003906 0.003906c0.21875 0.070312 0.43359 0.15625 0.64453 0.25391 0.14062 0.066406 0.30078 0.16016 0.44922 0.24219 0.22656 0.12109 0.44922 0.23828 0.69922 0.39062 0.17578 0.10938 0.375 0.25 0.5625 0.375 0.25 0.16797 0.50391 0.33984 0.77344 0.53906 0.20703 0.15625 0.42969 0.33594 0.65234 0.51172 0.28125 0.22266 0.5625 0.44922 0.85938 0.70312 0.23828 0.20703 0.49219 0.43359 0.74219 0.66406 0.30078 0.27344 0.60156 0.55469 0.91797 0.85938 0.27344 0.26562 0.55469 0.55078 0.83594 0.83984 0.31641 0.32422 0.64062 0.66406 0.97266 1.0234 0.29688 0.32031 0.60156 0.65625 0.90625 1.0039 0.33984 0.38672 0.6875 0.79297 1.0391 1.2109 0.31641 0.375 0.63281 0.76172 0.95703 1.1641 0.36328 0.45312 0.73828 0.9375 1.1133 1.4297 0.33203 0.43359 0.66406 0.87109 1.0039 1.3359 0.38281 0.52344 0.77344 1.082 1.168 1.6406 0.34766 0.49219 0.69141 0.98438 1.043 1.5078 0.40625 0.60547 0.82422 1.2578 1.2383 1.9023 0.35156 0.54297 0.69922 1.0781 1.0547 1.6523 0.43359 0.70312 0.875 1.457 1.3164 2.2031 0.35156 0.59375 0.69922 1.1641 1.0508 1.7891 0.48438 0.84766 0.97266 1.7617 1.4609 2.6641 0.31641 0.58594 0.63281 1.1406 0.95313 1.75 0.62891 1.1992 1.2656 2.4766 1.9023 3.7695 0.1875 0.38281 0.375 0.73438 0.56641 1.125 0.79687 1.6523 1.6016 3.3867 2.4062 5.1875-3.8711 2.2227-7.7617 4.6055-11.656 7.0273-0.66406 0.41406-1.3203 0.77734-1.9844 1.1953-4.8945 3.082-9.793 6.3047-14.691 9.668-4.8906-3.3672-9.7852-6.5898-14.688-9.6641-0.67188-0.42188-1.3359-0.79297-2.0078-1.2109-3.8867-2.4141-7.7734-4.7969-11.637-7.0156 0.80078-1.7969 1.6016-3.5312 2.4023-5.1836zm120.38 26.656c1.9609-0.64844 3.8477-1.2344 5.6562-1.7578 1.3867-0.40234 2.7617-0.79688 4.0625-1.1289 1.7344-0.44531 3.3711-0.81641 4.9492-1.1523 1.1445-0.24219 2.3086-0.49609 3.3711-0.68359 1.4961-0.26562 2.8711-0.45312 4.207-0.62109 0.91797-0.11719 1.8789-0.25391 2.7227-0.32813 1.2617-0.10937 2.375-0.15234 3.4648-0.18359 0.69531-0.019531 1.457-0.066407 2.0859-0.058594 1.0195 0.015625 1.8711 0.089844 2.7109 0.16797 0.48828 0.046875 1.0625 0.0625 1.4883 0.125l0.003907 0.003906c0.67578 0.10156 1.3477 0.25391 2.0039 0.44531 0.26562 0.074219 0.63281 0.12891 0.85547 0.21094 1.2031 0.25391 2.1406 1.1914 2.3984 2.3945 0.082031 0.23047 0.14062 0.60547 0.21484 0.87891 0.19141 0.64844 0.33984 1.3086 0.44141 1.9727 0.066406 0.44531 0.085938 1.043 0.13281 1.5547 0.074219 0.82031 0.14844 1.6406 0.16406 2.6289 0.011719 0.66797-0.039063 1.4727-0.0625 2.2148-0.03125 1.0508-0.070313 2.1172-0.17578 3.3203-0.078125 0.89062-0.22266 1.9023-0.34766 2.8789-0.16406 1.2852-0.34375 2.5977-0.59766 4.0312-0.19531 1.1211-0.46484 2.3438-0.71875 3.5547-0.32422 1.5195-0.67969 3.0898-1.1055 4.7539-0.34375 1.3516-0.75781 2.7812-1.1758 4.2266-0.51172 1.7617-1.082 3.5977-1.7109 5.5-0.52344 1.582-1.0977 3.2227-1.7109 4.9023-0.33594 0.92969-0.75 1.9375-1.1133 2.8984-4.2578-1.1523-8.6406-2.2031-13.051-3.2344-0.79297-0.18359-1.5469-0.39844-2.3477-0.58203-5.6328-1.2812-11.367-2.4648-17.199-3.543-1.0742-5.8359-2.2539-11.57-3.5469-17.207-0.17969-0.78516-0.39062-1.5273-0.57422-2.3125-1.0312-4.418-2.0859-8.8086-3.2422-13.078 0.97656-0.37109 2-0.78906 2.9414-1.1328 1.6523-0.58984 3.2578-1.1523 4.8047-1.6641zm-42.117 77.137c0.17969 1.6953 0.35156 3.3945 0.51172 5.0742-0.91797-0.92969-1.8438-1.9102-2.7578-2.8281s-1.8984-1.8398-2.8281-2.7578c1.6797 0.15625 3.3789 0.32812 5.0742 0.50781zm18.492 56.246c0.007813-1.3125 0.015625-2.6133 0.015625-3.9062 0-8.3203-0.21094-16.891-0.64844-26.191-0.38281-8.0625-0.96484-16.043-1.7617-24.176 2.1289 0.30078 4.3516 0.55469 6.4336 0.87891 3.2852 0.51562 6.3828 1.1094 9.5391 1.6758 0.28906 3.2578 0.60547 6.4961 0.83594 9.8008 0.52344 7.4141 0.83984 14.855 1.0547 22.207-2.6641 3.6055-5.3672 7.2266-8.2891 10.922-2.3906 3.0273-4.7852 5.8906-7.1797 8.7852zm32.863-47.777c0.48047 0.11328 0.89844 0.23438 1.375 0.35156-0.28125 0.46094-0.51172 0.88281-0.80078 1.3477l-0.32812 0.52344c-0.41797 0.67188-0.91016 1.3945-1.3398 2.0742-0.61328-0.71875-1.2266-1.4375-1.8477-2.1602-0.070312-0.94531-0.14453-1.8906-0.21875-2.832 0.71875 0.16016 1.5039 0.30859 2.207 0.47266zm-36.91-54.332c-1.9141-0.23828-3.7891-0.52344-5.7188-0.73828-0.25781-1.2148-0.54297-2.2852-0.80469-3.4727-0.60156-2.7109-1.2109-5.3477-1.8359-7.9062-0.22656-0.93359-0.4375-1.9766-0.66797-2.8867 1.4492-0.78125 2.8867-1.5547 4.3164-2.2969 2.457-1.2773 4.9023-2.5312 7.3008-3.6875 0.87109-0.42188 1.707-0.77734 2.5703-1.1836 0.47266 1.793 0.94922 3.582 1.4023 5.4062 1.0625 4.2891 2.0664 8.6484 3.0117 13.078 0.35156 1.668 0.67188 3.3672 1.0078 5.0547-0.83203-0.12109-1.6992-0.21094-2.5352-0.32812-2.6602-0.37891-5.3477-0.71094-8.043-1.043zm-25.156-5.7266 0.55859-0.34766c0.46094-0.28516 0.875-0.51172 1.332-0.79297 0.11328 0.47656 0.23828 0.89453 0.35156 1.3789l0.22266 0.95312c0.16406 0.70703 0.3125 1.4922 0.47266 2.207-0.94141-0.074219-1.8906-0.14844-2.832-0.21875-0.71875-0.62109-1.4414-1.2383-2.1602-1.8477 0.67578-0.43359 1.3906-0.92188 2.0547-1.3359zm-28.504 17.508c8.2031 0.19531 16.574 0.59375 24.879 1.1797 5.3008 0.37109 10.539 0.82031 15.715 1.3438 11.035 1.1133 21.887 2.582 32.246 4.3633 6.8906 1.1797 13.621 2.5547 20.234 4.0273 2.0664 0.46094 4.0703 0.97266 6.1055 1.4609 2.7422 0.65625 5.3906 1.3828 8.0703 2.0938-0.40625 0.86719-0.76562 1.7109-1.1875 2.5859-1.1484 2.3789-2.3945 4.8086-3.6602 7.2461-0.75 1.4414-1.5273 2.8945-2.3164 4.3555-1.3398-0.33984-2.7852-0.66406-4.1719-0.99609-1.1719-0.28125-2.3203-0.5625-3.5234-0.83984-3.9453-0.90625-8-1.793-12.254-2.6367-5.1328-1.0156-10.449-1.9492-15.957-2.8008-5.4453-0.85156-11.066-1.625-16.855-2.3086-11.684-1.375-22.891-2.3086-34.262-2.8516-9.3008-0.4375-17.867-0.65234-26.188-0.65234s-16.891 0.21094-26.191 0.64844c-7.1875 0.34375-14.348 0.90234-21.566 1.5742-0.875 0.082031-1.7305 0.10547-2.6094 0.19141 0.30078-2.1289 0.55469-4.3555 0.87891-6.4336 0.51562-3.2852 1.1094-6.3828 1.6758-9.5391 3.2578-0.28906 6.4961-0.60547 9.8008-0.83594 8.3047-0.58984 16.68-0.98438 24.875-1.1797 8.6992-0.19922 17.57-0.19922 26.262 0zm-54.863-14.332c-0.94531 0.070312-1.8906 0.14453-2.832 0.21875 0.16016-0.71484 0.30859-1.5 0.47266-2.2031l0.22266-0.96484c0.11328-0.48047 0.23438-0.89453 0.34766-1.3711 0.46094 0.28125 0.87891 0.51172 1.3438 0.80078l0.53516 0.33203c0.66797 0.41797 1.3906 0.90625 2.0664 1.3359-0.71484 0.61328-1.4336 1.2266-2.1562 1.8477zm-10.875 51.086c0.089843-0.89062 0.17578-1.7812 0.26953-2.6719 0.89844-0.09375 1.793-0.17969 2.6875-0.26953 0.78125-0.078125 1.5469-0.10547 2.3242-0.17969-0.91016 0.89453-1.8672 1.8008-2.7656 2.6953-0.89453 0.89453-1.8008 1.8555-2.6953 2.7656 0.074219-0.78906 0.10156-1.5586 0.17969-2.3438zm30.406-67.012c-1.5273 1.1875-3.0547 2.3164-4.5781 3.5312-1.0508-0.68359-2.0117-1.2422-3.0469-1.8984-2.3164-1.4766-4.5898-2.8945-6.8164-4.2539-0.83594-0.50781-1.7383-1.1055-2.5586-1.5938 0.46484-1.5625 0.93359-3.1172 1.418-4.6406 0.83594-2.6406 1.6758-5.2578 2.5508-7.7734 0.32422-0.92578 0.66797-1.7773 0.99609-2.6836 3.5469 2.0625 7.0742 4.0234 10.641 6.2617 0.26172 0.16406 0.52734 0.34375 0.78906 0.51172 3.0117 1.8984 6.0273 4.0234 9.043 6.0391-0.69531 0.51953-1.3906 1.0859-2.0898 1.6094-2.1172 1.5898-4.2266 3.2383-6.3477 4.8906zm-30.137 169.02c-0.17969-1.6953-0.35156-3.3945-0.51172-5.0742 0.91797 0.92969 1.8438 1.9102 2.7578 2.8281 0.91406 0.91797 1.8984 1.8398 2.8281 2.7578-1.6797-0.16016-3.3789-0.33203-5.0742-0.51172zm29.738 2.2305c-5.8203-5.3438-11.238-10.488-16.359-15.609-5.1211-5.1172-10.27-10.535-15.609-16.355-0.33984-7.9336-0.53125-15.41-0.53125-22.605s0.19141-14.676 0.53125-22.605c5.3438-5.8203 10.488-11.238 15.609-16.359s10.539-10.27 16.359-15.609c15.816-0.67578 29.398-0.67969 45.211 0 5.8203 5.3438 11.238 10.488 16.359 15.609s10.27 10.539 15.609 16.359c0.33594 7.9297 0.52734 15.41 0.52734 22.605s-0.19141 14.672-0.53125 22.605c-5.3438 5.8203-10.488 11.238-15.609 16.359-5.1211 5.1211-10.539 10.27-16.359 15.609-15.816 0.67578-29.395 0.67578-45.207 0zm22.605-274.99c20.211 0 40.57 19.926 56.48 54.984-1.1875 0.53516-2.4375 1.2031-3.6406 1.7656-2.2852 1.0703-4.582 2.1836-6.9102 3.3516-1.2578 0.62891-2.4648 1.1562-3.7344 1.8125-0.11719-0.25781-0.24219-0.47656-0.35937-0.73047-1.4805-3.2148-2.9922-6.3125-4.5312-9.2305-0.14063-0.26562-0.28516-0.51562-0.42578-0.78125-1.5977-2.9883-3.2227-5.8398-4.8672-8.4922l-0.0625-0.10938c-1.6406-2.6328-3.3008-5.0586-4.9688-7.3359-0.17969-0.25-0.36328-0.51172-0.54297-0.75781-1.5938-2.1328-3.1914-4.0664-4.7969-5.8594-0.25391-0.28516-0.51172-0.57812-0.76562-0.85547l-0.007812-0.003906c-1.4844-1.6094-3.0547-3.1367-4.707-4.5742-0.27344-0.23438-0.54297-0.46484-0.81641-0.69141-1.4727-1.2305-3.0352-2.3516-4.6758-3.3516-0.24219-0.14844-0.48438-0.26953-0.72656-0.40625v-0.003906c-1.4844-0.85938-3.0547-1.5664-4.6836-2.1094-0.16406-0.050781-0.32422-0.078125-0.48828-0.125v0.003906c-1.5469-0.47656-3.1523-0.73047-4.7695-0.75781-14.496 0-31.984 20.75-45.641 54.152-4.1055 10.184-7.6133 20.598-10.504 31.191-2.1641 7.8164-4.2148 16.59-6.0938 26.07-1.0156 5.1328-1.9492 10.449-2.8008 15.953-0.85156 5.4531-1.6289 11.059-2.3086 16.859-1.375 11.684-2.3086 22.895-2.8516 34.258v0.003906c-0.4375 9.2969-0.65234 17.863-0.65234 26.188 0 8.3203 0.21094 16.891 0.64844 26.191 0.38281 8.0664 0.96484 16.047 1.7617 24.176-2.1289-0.30078-4.3555-0.55469-6.4336-0.87891-3.2852-0.51562-6.3828-1.1094-9.5391-1.6758-0.28906-3.2578-0.60547-6.4961-0.83594-9.8008-0.58984-8.3047-0.98438-16.68-1.1797-24.875-0.09375-4.3555-0.16406-8.7266-0.16406-13.137 0-4.4141 0.070312-8.7812 0.16797-13.125 0.19531-8.2031 0.59375-16.574 1.1797-24.879 0.37109-5.3008 0.82031-10.539 1.3438-15.715 1.1133-11.035 2.582-21.887 4.3633-32.246l0.003906-0.003906c2.4648-14.602 5.7656-29.051 9.8828-43.277 2.8438-9.8711 6.2148-19.582 10.098-29.09 16.312-39.453 38.016-62.082 59.555-62.082zm-102.74 264.51-0.96484-0.22266c-0.48047-0.11328-0.89453-0.23438-1.3711-0.34766 0.28125-0.46094 0.51172-0.87891 0.80078-1.3438l0.33203-0.53516c0.41797-0.66797 0.90625-1.3906 1.3359-2.0664 0.61328 0.71875 1.2266 1.4414 1.8477 2.1602 0.070312 0.94531 0.14453 1.8906 0.21875 2.832-0.71484-0.16406-1.4961-0.3125-2.1992-0.47656zm-54.277-18.613c-1.3867-0.67969-2.7461-1.3594-4.0273-2.0352-0.5625-0.29297-1.0703-0.58203-1.6094-0.875-0.95703-0.51562-1.918-1.0352-2.8125-1.543-0.58203-0.33203-1.1172-0.65625-1.6719-0.98438-0.78906-0.46484-1.582-0.92969-2.3203-1.3867-0.53906-0.33203-1.0352-0.65625-1.5469-0.98438-0.6875-0.44141-1.375-0.88281-2.0156-1.3125-0.49219-0.33203-0.95312-0.65625-1.418-0.98047-0.58984-0.41406-1.1758-0.82422-1.7266-1.2266-0.44141-0.32422-0.85547-0.63672-1.2695-0.95312-0.51562-0.39453-1.0195-0.78516-1.4961-1.1641-0.38281-0.30469-0.74609-0.60938-1.1055-0.90625-0.44141-0.37109-0.87109-0.73438-1.2734-1.0938-0.32812-0.28906-0.64453-0.57422-0.94922-0.85547-0.37891-0.34766-0.73438-0.69141-1.0781-1.0234-0.27344-0.26953-0.54297-0.53516-0.79687-0.79297-0.31641-0.32422-0.60938-0.64062-0.89063-0.95312-0.21875-0.24219-0.44141-0.48047-0.64062-0.71484-0.26172-0.30469-0.49609-0.59375-0.72266-0.87891-0.16797-0.21094-0.34375-0.42969-0.49609-0.63281-0.20703-0.27734-0.38281-0.53906-0.55469-0.79297-0.12109-0.18359-0.25781-0.37109-0.36328-0.54297-0.15625-0.25391-0.27734-0.48438-0.39844-0.71094-0.078125-0.14453-0.17188-0.30469-0.23438-0.44141l-0.003906-0.003906c-0.097656-0.21094-0.18359-0.42578-0.25781-0.64844-0.035157-0.097657-0.089844-0.21484-0.11328-0.30469-0.16406-0.48047-0.16406-1 0-1.4805 0.027344-0.089843 0.082032-0.20703 0.11328-0.30469 0.074218-0.22266 0.16016-0.4375 0.25781-0.64844 0.066406-0.14063 0.16016-0.30078 0.24219-0.44922 0.12109-0.22656 0.23828-0.44922 0.39062-0.69922 0.10938-0.17578 0.25-0.375 0.375-0.5625 0.16797-0.25 0.33984-0.50391 0.53906-0.77344 0.15625-0.20703 0.33594-0.42969 0.51172-0.65234 0.22266-0.28125 0.44922-0.5625 0.70312-0.85938 0.20703-0.23828 0.43359-0.49219 0.66406-0.73828 0.27344-0.30078 0.55469-0.60156 0.85938-0.91797 0.26562-0.27344 0.55078-0.55469 0.83984-0.83594 0.32422-0.31641 0.66406-0.64062 1.0234-0.97266 0.32031-0.29688 0.65625-0.60156 1.0039-0.90625 0.38672-0.33984 0.79297-0.6875 1.2109-1.0391 0.375-0.31641 0.76172-0.63281 1.1641-0.95703 0.45312-0.36328 0.9375-0.73828 1.4297-1.1133 0.43359-0.33203 0.87109-0.66406 1.3359-1.0039 0.52344-0.38281 1.082-0.77344 1.6406-1.168 0.49219-0.34766 0.98438-0.69141 1.5078-1.043 0.60547-0.40625 1.2578-0.82422 1.9023-1.2383 0.54297-0.35156 1.0781-0.69922 1.6523-1.0547 0.70312-0.43359 1.457-0.875 2.2031-1.3164 0.59375-0.35156 1.1641-0.69922 1.7891-1.0508 0.84766-0.48438 1.7617-0.97266 2.6641-1.4609 0.58594-0.31641 1.1406-0.63281 1.75-0.95313 1.1992-0.62891 2.4766-1.2656 3.7695-1.9023 0.38281-0.1875 0.73438-0.375 1.125-0.56641 1.6523-0.79687 3.3867-1.6016 5.1875-2.4062 2.2227 3.8711 4.6055 7.7617 7.0273 11.656 0.41406 0.66406 0.77734 1.3203 1.1953 1.9844 3.082 4.8945 6.3047 9.793 9.668 14.691-3.3672 4.8906-6.5898 9.7852-9.668 14.688-0.41016 0.65234-0.76953 1.2969-1.1719 1.9453-2.4258 3.9062-4.8203 7.8125-7.0508 11.699-1.8047-0.80859-3.5469-1.6133-5.1992-2.4141-0.30078-0.14453-0.56641-0.28516-0.86328-0.43359zm21.918-154.67c0.10156-0.66797 0.25-1.3281 0.44141-1.9766 0.074219-0.27344 0.13281-0.64844 0.21484-0.87891 0.17188-0.57031 0.46094-1.0977 0.84766-1.5508 0.42578-0.35156 0.91406-0.61719 1.4375-0.78516 0.18359-0.070313 0.41797-0.12891 0.62891-0.19531h0.003906c0.66797-0.19531 1.3438-0.34766 2.0312-0.45312 0.30078-0.050781 0.59375-0.10156 0.92578-0.14062 1.2891-0.15625 2.5898-0.23828 3.8906-0.24609l0.16797-0.007813c1.5859-0.003906 3.4219 0.097656 5.4219 0.28516 0.23438 0.023438 0.44922 0.035157 0.6875 0.058594 1.9648 0.20312 4.1484 0.53125 6.5 0.96094 0.375 0.070313 0.75 0.13672 1.1367 0.21484 2.3867 0.46484 4.9648 1.0586 7.7383 1.8008 0.4375 0.11719 0.89453 0.25 1.3438 0.375 2.8867 0.80078 5.9453 1.7344 9.2383 2.8711 0.33984 0.11719 0.70703 0.26172 1.0508 0.37891 1.4688 0.51562 3.125 1.207 4.6719 1.7969-1.1562 4.2812-2.2148 8.6875-3.25 13.117-0.17969 0.76562-0.38672 1.4922-0.55859 2.2617-1.2812 5.6406-2.4648 11.379-3.5469 17.219-5.8359 1.0742-11.57 2.2539-17.207 3.5469-0.78516 0.17969-1.5273 0.39062-2.3125 0.57422-4.418 1.0312-8.8125 2.0859-13.078 3.2422-0.35938-0.94922-0.76953-1.9453-1.1016-2.8633-0.61719-1.6992-1.1992-3.3594-1.7266-4.957-0.625-1.8906-1.1914-3.7148-1.6992-5.4609-0.42188-1.4531-0.83594-2.8945-1.1797-4.25-0.42188-1.6602-0.78125-3.2227-1.1016-4.7383-0.25781-1.2148-0.52344-2.4414-0.72266-3.5664-0.25-1.4297-0.43359-2.7422-0.59375-4.0273-0.125-0.97656-0.26953-1.9922-0.34766-2.8828-0.10547-1.207-0.14453-2.2695-0.17578-3.3203-0.023438-0.74219-0.074219-1.5469-0.0625-2.2148 0.015624-0.98828 0.089843-1.8086 0.16406-2.6289 0.035156-0.51953 0.054688-1.1133 0.12109-1.5586zm1.7852 164.43c-0.92578-0.32422-1.7773-0.66797-2.6836-0.99609 2.0703-3.5586 4.0391-7.1016 6.2812-10.676 0.14453-0.23047 0.30078-0.46094 0.44531-0.69141 1.9141-3.0352 4.0508-6.0703 6.082-9.1094 0.50391 0.67578 1.0508 1.3477 1.5586 2.0234 1.6289 2.1602 3.3047 4.3125 4.9883 6.4727 1.1758 1.5078 2.2852 3.0156 3.4844 4.5234-0.68359 1.0508-1.2422 2.0117-1.8984 3.0469-1.4766 2.3164-2.8945 4.5898-4.2539 6.8164-0.50781 0.83594-1.1055 1.7383-1.5938 2.5586-1.5625-0.46484-3.1172-0.93359-4.6406-1.418-2.6367-0.83594-5.2539-1.6758-7.7695-2.5547zm31.418-111.6c1.668-0.35156 3.3672-0.67188 5.0547-1.0078-0.125 0.84766-0.21484 1.7266-0.33203 2.5781-0.37109 2.6367-0.69922 5.3008-1.0312 7.9727-0.23828 1.9258-0.52344 3.8086-0.74219 5.7461-1.2148 0.25781-2.2852 0.54297-3.4727 0.80469-2.7109 0.60156-5.3477 1.2109-7.9062 1.8359-0.93359 0.22656-1.9766 0.4375-2.8867 0.66797-0.78125-1.4492-1.5547-2.8867-2.2969-4.3164-1.2773-2.457-2.5312-4.9023-3.6875-7.3008-0.42188-0.87109-0.77734-1.707-1.1836-2.5703 1.793-0.47266 3.582-0.94922 5.4062-1.4023 4.2891-1.0625 8.6484-2.0664 13.078-3.0078zm-2.0391 34.734-0.34766-0.55859c-0.28516-0.46094-0.51172-0.875-0.79297-1.332 0.47656-0.11328 0.89453-0.23828 1.3789-0.35156l0.95312-0.22266c0.70703-0.16406 1.4922-0.3125 2.207-0.47266-0.074219 0.94141-0.14844 1.8906-0.21875 2.832-0.62109 0.71875-1.2383 1.4414-1.8477 2.1602-0.42969-0.67578-0.91797-1.3945-1.332-2.0586zm-51.926-114.23c8.8516-7.8203 20.465-11.773 32.246-10.973 15.988 0.54297 31.754 3.8984 46.574 9.9141-0.45313 1.207-0.86719 2.5469-1.3125 3.7812-0.86328 2.3906-1.707 4.8164-2.5352 7.3086-0.44531 1.332-0.92578 2.5547-1.3594 3.9141-0.74219-0.27734-1.4297-0.47266-2.1602-0.73828-1.6719-0.60156-3.293-1.1406-4.918-1.6797-2.1055-0.69531-4.1797-1.3555-6.207-1.9414-1.5977-0.46094-3.1523-0.87891-4.6992-1.2734-1.9453-0.49609-3.8359-0.93359-5.6914-1.3242-1.4883-0.3125-2.9492-0.60156-4.3789-0.84375-1.7852-0.30078-3.4922-0.52734-5.1797-0.72266-1.3398-0.15234-2.6797-0.30859-3.9531-0.39453-1.6328-0.10938-3.1602-0.11719-4.6836-0.11719-1.1602 0.003907-2.3398-0.019531-3.4297 0.050781-1.4922 0.09375-2.8438 0.3125-4.1992 0.53125-0.93359 0.14844-1.9219 0.25-2.7891 0.45703h-0.003906c-1.3086 0.33984-2.5859 0.78125-3.8242 1.3203-0.63281 0.25781-1.3594 0.4375-1.9414 0.73438h0.003907c-1.6289 0.80469-3.1211 1.8633-4.4258 3.1289-4.25 5.0391-6.4883 11.469-6.2812 18.059 0.39844 18.168 4.5898 36.051 12.301 52.504 4.2969 10.105 9.1836 19.953 14.629 29.492 3.9961 7.0508 8.75 14.699 14.125 22.738 2.4453 3.6445 5.0195 7.3398 7.7305 11.094-0.070313 3.5938-0.11328 7.2031-0.11328 10.84 0 4.5352 0.070313 9.0273 0.17578 13.504 0.011718 0.58203 0.027344 1.1641 0.042968 1.7461-1.1992-1.5195-2.4219-3.0352-3.5938-4.5586-0.90625-1.1758-1.8281-2.3555-2.7188-3.5312-2.8516-3.7695-5.6328-7.5352-8.2852-11.277-0.10156-0.14453-0.21094-0.28906-0.3125-0.42969-8.5781-12.074-16.461-24.621-23.613-37.59-4.9688-8.9883-9.4531-18.238-13.43-27.711-16.367-39.434-17.016-70.781-1.7891-86.012zm0 311.71c-14.293-14.293-14.598-42.777-1.0625-78.82 1.207 0.45312 2.5469 0.86719 3.7812 1.3125 2.3906 0.86328 4.8164 1.707 7.3086 2.5352 1.332 0.44531 2.5547 0.92578 3.9141 1.3594-0.27734 0.74219-0.47656 1.4336-0.74219 2.168-0.59766 1.6523-1.1289 3.2617-1.6641 4.875-0.70703 2.1328-1.375 4.2344-1.9688 6.2891-0.45312 1.5625-0.85938 3.082-1.2461 4.5977-0.50781 1.9883-0.95703 3.9258-1.3555 5.8242-0.30078 1.4414-0.57812 2.8555-0.81641 4.2383-0.3125 1.8438-0.54687 3.6055-0.74609 5.3438-0.14844 1.2891-0.29688 2.5742-0.37891 3.8047-0.11328 1.6875-0.125 3.2656-0.11719 4.832 0.003906 1.1133-0.019531 2.25 0.046875 3.3008h0.003906c0.10938 1.4492 0.29297 2.8945 0.54688 4.3281 0.14453 0.89453 0.23828 1.8438 0.44141 2.6719 0.34766 1.3438 0.80078 2.6523 1.3516 3.9258 0.24609 0.60156 0.41797 1.293 0.70312 1.8477 0.80859 1.6328 1.8633 3.1289 3.1328 4.4336 1.1836 1.1523 2.5273 2.1289 3.9883 2.8984 0.48828 0.26562 1.0898 0.44141 1.6172 0.67969 1.1289 0.52734 2.2969 0.96875 3.4922 1.3242 0.72656 0.20312 1.5391 0.32422 2.3164 0.48438 1.2656 0.27344 2.5469 0.48438 3.832 0.62891 0.91406 0.09375 1.8867 0.12891 2.8516 0.17188 0.85938 0.039063 1.6367 0.15234 2.5391 0.15234 0.40625 0 0.90234-0.089844 1.3164-0.097656 2.4141-0.046875 4.9766-0.24609 7.6523-0.56641 0.69922-0.082032 1.3398-0.10156 2.0547-0.20703 3.4453-0.48828 7.082-1.2031 10.883-2.1172 0.95312-0.23047 1.9609-0.53906 2.9336-0.79688 2.9414-0.76953 5.9492-1.6445 9.0625-2.6562 1.3789-0.44922 2.7695-0.93359 4.1797-1.4258 1.2656-0.44531 2.4727-0.80078 3.7617-1.2852 0.43359 1.3594 0.91406 2.582 1.3594 3.9141 0.83203 2.4922 1.6719 4.918 2.5352 7.3086 0.44531 1.2344 0.85547 2.5742 1.3125 3.7812-36.047 13.535-64.527 13.23-78.82-1.0586zm44.555-65.32c5.6406 1.2812 11.379 2.4648 17.219 3.5469 1.0742 5.8359 2.2539 11.57 3.5469 17.207 0.17969 0.78516 0.39062 1.5273 0.57422 2.3125 1.0312 4.418 2.0859 8.8125 3.2422 13.078-0.95312 0.36328-1.9531 0.76953-2.875 1.1055-1.6914 0.61328-3.3438 1.1953-4.9336 1.7188-1.9062 0.62891-3.7383 1.1992-5.5 1.707-1.4375 0.41797-2.8672 0.82422-4.2109 1.1719-1.6797 0.42969-3.2656 0.78906-4.7969 1.1172-1.1914 0.25391-2.3984 0.51562-3.5039 0.71094-1.4609 0.25781-2.8008 0.44141-4.1055 0.60547-0.94922 0.11719-1.9336 0.26172-2.8008 0.33984-1.2422 0.10938-2.3398 0.14844-3.418 0.17969-0.70703 0.019531-1.4805 0.070312-2.1172 0.058593-1.0273-0.015625-1.8867-0.089843-2.7344-0.17188-0.47656-0.046875-1.0391-0.0625-1.457-0.125v-0.003906c-0.69531-0.10547-1.3828-0.25781-2.0547-0.45703-0.25-0.070313-0.59375-0.12109-0.80469-0.19531l-0.003906-0.003906c-1.2031-0.25391-2.1406-1.1953-2.4023-2.3984-0.082032-0.23047-0.14062-0.60547-0.21484-0.87891-0.19141-0.64844-0.33594-1.3086-0.44141-1.9727-0.066406-0.44531-0.085938-1.043-0.13281-1.5547-0.074219-0.82031-0.14844-1.6406-0.16406-2.6289-0.011719-0.66797 0.039062-1.4727 0.0625-2.2148 0.03125-1.0508 0.070312-2.1133 0.17578-3.3203 0.078125-0.89062 0.22266-1.9062 0.34766-2.8828 0.16406-1.2812 0.34375-2.5938 0.59375-4.0273 0.19922-1.1211 0.46484-2.3516 0.72266-3.5664 0.32031-1.5156 0.67969-3.0781 1.1016-4.7383 0.34766-1.3555 0.76172-2.7969 1.1797-4.25 0.50781-1.75 1.0742-3.5703 1.6992-5.4609 0.52734-1.5977 1.1094-3.2578 1.7266-4.957 0.33203-0.91797 0.74219-1.9141 1.1016-2.8633 4.2812 1.1562 8.6875 2.2148 13.117 3.25 0.76953 0.17969 1.4961 0.38672 2.2656 0.5625zm111.3 11.801c4.5352 0 9.0273-0.070313 13.504-0.17578 0.58203-0.011718 1.1641-0.027344 1.7461-0.042968-1.5195 1.1992-3.0352 2.4219-4.5586 3.5938-1.1758 0.90625-2.3555 1.8281-3.5312 2.7188-3.7695 2.8516-7.5352 5.6328-11.277 8.2852-0.14453 0.10156-0.28906 0.21094-0.42969 0.3125-5.7148 4.043-11.449 7.832-17.172 11.469-1.7695 1.125-3.5352 2.168-5.3047 3.2539-2.4141 1.4805-4.8125 2.8477-7.2188 4.2461-0.32812-0.90625-0.67187-1.7617-0.99609-2.6875-0.875-2.5039-1.7109-5.1133-2.543-7.75-0.48438-1.5312-0.95312-3.0898-1.4219-4.6602 1.2148-0.72266 2.4961-1.5352 3.7422-2.3008 0.97656-0.59766 1.9375-1.1797 2.9336-1.8008 3.3789-2.1172 6.8242-4.3242 10.375-6.6992l0.21875-0.14062 0.003906-0.003906c3.6484-2.4414 7.3477-5.0156 11.098-7.7305 0.56641 0.011719 1.1406-0.011718 1.707-0.003906 3.0273 0.050781 6.0547 0.11719 9.125 0.11719zm135.1 26.852h-0.003906c-0.10156 0.66406-0.25 1.3242-0.44141 1.9727-0.074219 0.27344-0.13281 0.64844-0.21484 0.87891-0.25781 1.2031-1.1992 2.1445-2.4023 2.4023-0.20703 0.074219-0.54688 0.125-0.78906 0.19141-0.67969 0.20313-1.375 0.35547-2.0781 0.46094-0.41797 0.0625-0.97266 0.078125-1.4453 0.125-0.84766 0.078125-1.7109 0.15625-2.7422 0.17188-0.64062 0.007813-1.4141-0.039063-2.1211-0.058594-1.0781-0.03125-2.1719-0.070312-3.4102-0.17969-0.87109-0.078125-1.8633-0.21875-2.8164-0.33984-1.3008-0.16406-2.6328-0.34766-4.0859-0.60547-1.1094-0.19531-2.3203-0.46094-3.5195-0.71484-1.5273-0.32422-3.1055-0.68359-4.7812-1.1133-1.3438-0.34375-2.7734-0.75391-4.2148-1.1719-1.7656-0.51172-3.6016-1.082-5.5078-1.7109-1.5781-0.52344-3.2227-1.0977-4.8984-1.707-0.92969-0.33594-1.9375-0.75-2.8984-1.1133 1.1523-4.2695 2.2109-8.6602 3.2422-13.078 0.18359-0.78125 0.39453-1.5234 0.57422-2.3125 1.2812-5.6367 2.4648-11.371 3.5469-17.207 5.8359-1.0742 11.57-2.2539 17.207-3.5469 0.78516-0.17969 1.5273-0.39062 2.3125-0.57422 4.418-1.0312 8.8125-2.0859 13.078-3.2422 0.35938 0.94922 0.76953 1.9453 1.1016 2.8633 0.61719 1.6992 1.1992 3.3594 1.7266 4.957 0.625 1.8906 1.1914 3.7148 1.6992 5.4609 0.42188 1.4531 0.83594 2.8945 1.1797 4.25 0.42188 1.6602 0.78125 3.2227 1.1016 4.7383 0.25781 1.2148 0.52344 2.4414 0.72266 3.5664 0.25 1.4297 0.43359 2.7422 0.59375 4.0273 0.125 0.97656 0.26953 1.9922 0.34766 2.8828 0.10547 1.207 0.14453 2.2695 0.17578 3.3203 0.023437 0.74219 0.074218 1.5469 0.0625 2.2148-0.015626 0.98828-0.089844 1.8086-0.16406 2.6289-0.054687 0.51953-0.074219 1.1133-0.14062 1.5625zm-72.98-13.66c-1.4414-0.75-2.8945-1.5273-4.3555-2.3164 0.23047-0.91016 0.44141-1.9531 0.66797-2.8867 0.625-2.5586 1.2383-5.1953 1.8359-7.9062 0.26172-1.1875 0.54688-2.2578 0.80469-3.4727 1.8906-0.21094 3.7227-0.49219 5.5977-0.72266 2.7461-0.33984 5.4766-0.67578 8.1836-1.0586 0.83203-0.11719 1.6953-0.20703 2.5234-0.32812-0.33594 1.6875-0.65234 3.3867-1.0078 5.0547-0.9375 4.4336-1.9414 8.793-3.0117 13.078-0.45312 1.8203-0.92578 3.6094-1.4023 5.4062-0.86719-0.40625-1.7109-0.76562-2.5859-1.1875-2.3828-1.1484-4.8125-2.3984-7.25-3.6641zm-45.422 28.406c3.8867 2.4141 7.7734 4.7969 11.637 7.0156-0.80469 1.8008-1.6094 3.5391-2.4062 5.1875-0.19141 0.39062-0.375 0.74219-0.56641 1.125-0.63672 1.293-1.2734 2.5703-1.9023 3.7695-0.32031 0.60938-0.63281 1.1641-0.95312 1.75-0.48828 0.90234-0.98047 1.8164-1.4609 2.6641-0.35547 0.62109-0.70312 1.1953-1.0508 1.7891-0.44141 0.74609-0.88281 1.5-1.3164 2.2031-0.35547 0.57422-0.70312 1.1094-1.0547 1.6523-0.41406 0.64844-0.83203 1.2969-1.2383 1.9023-0.35156 0.52344-0.69531 1.0156-1.043 1.5078-0.39062 0.55859-0.78125 1.1172-1.168 1.6406-0.33984 0.46484-0.67188 0.90234-1.0039 1.3359-0.375 0.49219-0.74609 0.97266-1.1133 1.4297-0.32422 0.40234-0.64063 0.78906-0.95703 1.1641-0.35156 0.41797-0.69922 0.82813-1.0391 1.2109-0.30469 0.34766-0.60938 0.68359-0.90625 1.0039-0.33203 0.35938-0.65625 0.69531-0.97266 1.0234-0.28125 0.28906-0.5625 0.57422-0.83594 0.83984-0.3125 0.30469-0.61719 0.58594-0.91797 0.85937-0.25 0.22656-0.5 0.45703-0.74219 0.66406-0.29688 0.25391-0.57812 0.48047-0.85938 0.70312-0.21875 0.17578-0.44141 0.35547-0.65234 0.51172-0.26953 0.19922-0.51953 0.37109-0.77344 0.53906-0.1875 0.125-0.38672 0.26562-0.5625 0.375-0.25 0.15234-0.47266 0.27344-0.69922 0.39062-0.14844 0.078125-0.30859 0.17578-0.44922 0.24219h0.003906c-0.21094 0.097656-0.42578 0.18359-0.64844 0.25781-0.097657 0.035156-0.21484 0.089844-0.30469 0.11328-0.48047 0.16406-1 0.16406-1.4805 0-0.089843-0.027344-0.20703-0.082032-0.30469-0.11328-0.22266-0.074218-0.4375-0.16016-0.64844-0.25781-0.14063-0.066406-0.30078-0.16016-0.44922-0.24219-0.22656-0.12109-0.44922-0.23828-0.69922-0.39062-0.17578-0.10938-0.375-0.25-0.5625-0.375-0.25-0.16797-0.50391-0.33984-0.77344-0.53906-0.20703-0.15625-0.42969-0.33594-0.65234-0.51172-0.28125-0.22266-0.5625-0.44922-0.85938-0.70312-0.23828-0.20703-0.49219-0.43359-0.73828-0.66406-0.30078-0.27344-0.60156-0.55469-0.91797-0.85937-0.27344-0.26563-0.55469-0.55078-0.83594-0.83984-0.31641-0.32422-0.64062-0.66406-0.97266-1.0234-0.29688-0.32031-0.60156-0.65625-0.90625-1.0039-0.33984-0.38672-0.6875-0.79297-1.0391-1.2109-0.31641-0.375-0.63281-0.76172-0.95703-1.1641-0.36328-0.45312-0.73828-0.9375-1.1133-1.4297-0.33203-0.43359-0.66406-0.87109-1.0039-1.3359-0.38281-0.52344-0.77344-1.082-1.168-1.6406-0.34766-0.49219-0.69141-0.98438-1.043-1.5078-0.40625-0.60547-0.82422-1.2578-1.2383-1.9023-0.35156-0.54297-0.69922-1.0781-1.0547-1.6523-0.43359-0.70312-0.875-1.457-1.3164-2.2031-0.35156-0.59375-0.69922-1.1641-1.0508-1.7891-0.48438-0.84766-0.97266-1.7617-1.4609-2.6641-0.31641-0.58594-0.63281-1.1406-0.95313-1.75-0.62891-1.1992-1.2656-2.4766-1.9023-3.7695-0.1875-0.38281-0.375-0.73438-0.56641-1.125-0.79687-1.6523-1.6016-3.3867-2.4062-5.1875 3.8711-2.2227 7.7617-4.6055 11.656-7.0273 0.66406-0.41406 1.3203-0.77734 1.9844-1.1953 4.8945-3.082 9.793-6.3047 14.691-9.668 4.8906 3.3672 9.7852 6.5898 14.688 9.6641 0.67188 0.41797 1.3359 0.78906 2.0078 1.207zm-58.34-39.996-0.53516 0.33203c-0.46484 0.28906-0.88281 0.51562-1.3438 0.80078-0.11328-0.47656-0.23828-0.89453-0.35156-1.375l-0.22266-0.95312c-0.16406-0.70703-0.3125-1.4922-0.47266-2.207 0.94141 0.074219 1.8906 0.14844 2.832 0.21875 0.71875 0.62109 1.4414 1.2344 2.1602 1.8477-0.67578 0.42969-1.3984 0.92188-2.0664 1.3359zm83.379-3.1836c0.94531-0.070312 1.8906-0.14453 2.832-0.21875-0.16016 0.71875-0.30859 1.5039-0.47266 2.207l-0.22266 0.95312c-0.11328 0.48047-0.23438 0.89844-0.35156 1.375-0.46094-0.28125-0.87891-0.51172-1.3438-0.80078l-0.53516-0.33203c-0.66797-0.41797-1.3906-0.90625-2.0664-1.3359 0.71875-0.61328 1.4414-1.2266 2.1602-1.8477zm-41.734 119.66c-21.535 0-43.242-22.629-59.551-62.082l-0.003907 0.003907c-3.8828-9.5117-7.2539-19.223-10.098-29.094-1.7891-6.125-3.4023-12.508-4.9219-18.992-0.45312-1.9414-0.87109-3.9297-1.3008-5.8984-0.53906-2.4648-0.99609-5.0039-1.4961-7.5117 0.84766 0.125 1.7266 0.21484 2.5781 0.33203 2.6367 0.37109 5.3008 0.69922 7.9727 1.0312 1.9258 0.23828 3.8086 0.52344 5.7461 0.74219 0.38672 1.8203 0.79688 3.5156 1.1914 5.2734 0.28516 1.2578 0.5625 2.543 0.85156 3.7656 0.91797 3.8711 1.8555 7.6133 2.8281 11.125l0.054687 0.21875 0.003907 0.003906h0.003906c2.8906 10.594 6.3945 21.004 10.5 31.188 13.656 33.402 31.145 54.152 45.641 54.152 1.6172-0.027344 3.2227-0.28125 4.7695-0.75391 0.16406-0.046875 0.32422-0.074219 0.48828-0.125 1.6289-0.54297 3.1992-1.2461 4.6836-2.1094 0.24219-0.13672 0.48438-0.26172 0.72656-0.40625 1.6406-1.0039 3.2031-2.125 4.6758-3.3555 0.27344-0.22656 0.54297-0.45312 0.81641-0.69141 1.6523-1.4336 3.2227-2.9648 4.707-4.5742 0.25781-0.27734 0.51172-0.57031 0.76562-0.85547 1.6016-1.793 3.2031-3.7266 4.7969-5.8594 0.18359-0.24219 0.36328-0.50781 0.54297-0.75781 1.668-2.2812 3.3281-4.7031 4.9688-7.3359l0.0625-0.10938c1.6484-2.6523 3.2695-5.5039 4.8672-8.4922 0.14062-0.26562 0.28516-0.51172 0.42578-0.78125 1.543-2.9219 3.0508-6.0156 4.5312-9.2305 0.11719-0.25391 0.24219-0.47656 0.35938-0.73047 1.2656 0.65625 2.4727 1.1797 3.7305 1.8086 2.3398 1.1719 4.6445 2.2891 6.9375 3.3633 1.1953 0.55859 2.4375 1.2227 3.6211 1.7539-15.906 35.059-36.266 54.984-56.477 54.984zm155.86-64.559c-15.234 15.23-46.582 14.578-86.008-1.7852-9.4727-3.9805-18.723-8.4648-27.715-13.434-5.5977-3.0664-11.254-6.4375-16.918-9.9531-1.6797-1.043-3.3594-2.1445-5.0391-3.2227-2.1367-1.3711-4.2734-2.8516-6.4102-4.2812 0.69531-0.51953 1.3906-1.0859 2.0898-1.6094 2.1211-1.5977 4.2266-3.2422 6.3477-4.8945 1.5273-1.1875 3.0547-2.3164 4.5781-3.5312 1.5586 1.0156 3.0469 1.9219 4.5703 2.8828 1.0938 0.69141 2.1992 1.4023 3.2734 2.0664 3.3164 2.0469 6.5508 3.9844 9.6562 5.7461 0.125 0.070312 0.26562 0.16016 0.39062 0.23047l0.015625 0.007813c7.1914 4.0703 14.148 7.543 20.953 10.711 2.8555 1.332 5.7578 2.75 8.5195 3.9102h0.007813c4.5391 1.9023 8.9297 3.5469 13.207 5.0117 1.4609 0.5 2.832 0.88281 4.2578 1.332 2.7734 0.875 5.5078 1.707 8.1406 2.3867 1.5586 0.40234 3.0352 0.72266 4.5391 1.0547 2.375 0.52734 4.6836 0.98828 6.9102 1.3438 1.4375 0.23047 2.832 0.42578 4.2031 0.58594 2.1562 0.25 4.1953 0.38281 6.1797 0.45703 0.79688 0.027344 1.7109 0.18359 2.4805 0.18359 0.50781 0 0.94141-0.074219 1.4375-0.085938 0.90234-0.023438 1.75-0.089844 2.6094-0.15625l-0.003906 0.007812c1.5078-0.10937 3.0039-0.30078 4.4883-0.57031 0.78906-0.14453 1.5664-0.29297 2.3047-0.48047h0.003906c1.3164-0.34375 2.6016-0.78906 3.8516-1.3281 0.55859-0.23828 1.1641-0.43359 1.6797-0.70312 3.2461-1.5625 5.8594-4.1914 7.3984-7.4492 0.28516-0.55469 0.45312-1.2461 0.70312-1.8477 0.55469-1.2734 1.0039-2.582 1.3516-3.9258 0.19922-0.83203 0.29297-1.7812 0.44141-2.6719 0.25781-1.4336 0.4375-2.8789 0.54688-4.3281 0.066406-1.0508 0.042968-2.1875 0.046874-3.3008 0.007813-1.5664-0.003906-3.1445-0.11719-4.832-0.082031-1.2305-0.23438-2.5156-0.37891-3.8047-0.19922-1.7383-0.42969-3.5-0.74609-5.3438-0.23438-1.3828-0.51562-2.8008-0.81641-4.2383-0.39453-1.8984-0.84766-3.8359-1.3555-5.8242-0.38672-1.5117-0.79688-3.0352-1.2461-4.5977-0.59375-2.0547-1.2617-4.1562-1.9688-6.2891-0.53516-1.6133-1.0664-3.2188-1.6641-4.875-0.26562-0.73438-0.46094-1.4258-0.74219-2.168 1.3594-0.43359 2.582-0.91406 3.9141-1.3594 2.4922-0.83203 4.918-1.6719 7.3086-2.5352 1.2344-0.44531 2.5742-0.85547 3.7812-1.3125 13.539 36.043 13.23 64.527-1.0586 78.82zm2.4805-96.305c-9.5117 3.8828-19.223 7.2539-29.094 10.102-14.227 4.1133-28.676 7.4141-43.277 9.8828-10.359 1.7812-21.211 3.2461-32.246 4.3633l-0.019531 0.003906c-5.1641 0.52344-10.395 0.96875-15.695 1.3398-8.3047 0.58984-16.676 0.98437-24.875 1.1797-8.6914 0.19922-17.562 0.19922-26.258 0-8.2031-0.19531-16.574-0.59375-24.879-1.1797-5.2969-0.37109-10.535-0.82031-15.715-1.3438-11.035-1.1133-21.887-2.582-32.246-4.3633-14.602-2.4688-29.051-5.7695-43.277-9.8828-9.8711-2.8477-19.582-6.2188-29.09-10.102-39.453-16.309-62.082-38.016-62.082-59.551 0-20.211 19.926-40.57 54.984-56.48 0.53516 1.1875 1.2031 2.4375 1.7656 3.6406 1.0703 2.2852 2.1836 4.582 3.3516 6.9102 0.62891 1.2578 1.1562 2.4648 1.8125 3.7344-0.25781 0.11719-0.47656 0.24219-0.73047 0.35937-3.2148 1.4805-6.3125 2.9922-9.2305 4.5312-0.26562 0.14063-0.51562 0.28516-0.78125 0.42578-2.9883 1.5977-5.8398 3.2227-8.4922 4.8672l-0.10938 0.0625c-2.6328 1.6406-5.0586 3.3008-7.3359 4.9688-0.25 0.17969-0.51172 0.36328-0.75781 0.54297-2.1328 1.5938-4.0664 3.1914-5.8594 4.7969-0.28516 0.25391-0.57812 0.51172-0.85547 0.76562l-0.003906 0.003906c-1.6094 1.4844-3.1367 3.0547-4.5742 4.707-0.23438 0.27344-0.46484 0.54297-0.69141 0.81641-1.2305 1.4727-2.3516 3.0352-3.3516 4.6758-0.14844 0.24219-0.26953 0.48438-0.40625 0.72656h-0.003906c-0.85938 1.4844-1.5664 3.0547-2.1094 4.6875-0.050781 0.16406-0.078125 0.32422-0.125 0.48828l0.003906-0.003907c-0.47656 1.5469-0.73047 3.1562-0.75781 4.7734 0 14.496 20.75 31.984 54.152 45.641 10.184 4.1016 20.598 7.6094 31.191 10.5 7.8164 2.1641 16.59 4.2148 26.07 6.0938 5.1328 1.0156 10.449 1.9492 15.953 2.8008 5.4531 0.85156 11.059 1.6289 16.859 2.3086 11.684 1.375 22.891 2.3086 34.262 2.8516v0.003907c17.445 0.875 34.93 0.875 52.379 0 11.371-0.54297 22.574-1.4766 34.25-2.8516 5.8086-0.67969 11.414-1.457 16.871-2.3086 5.4883-0.85937 10.816-1.7852 15.949-2.8008 9.4805-1.875 18.25-3.9297 26.07-6.0938l0.003907-0.003906-0.003907-0.003906c10.594-2.8867 21.004-6.3945 31.188-10.496 33.402-13.656 54.152-31.148 54.152-45.641-0.027344-1.6211-0.28125-3.2266-0.75391-4.7734-0.046875-0.16406-0.074219-0.32422-0.125-0.48828v0.003907c-0.54297-1.6328-1.2461-3.2031-2.1094-4.6875-0.13672-0.24219-0.26172-0.48438-0.40625-0.72656-1.0039-1.6406-2.125-3.2031-3.3555-4.6758-0.22656-0.27344-0.45312-0.54297-0.69141-0.81641-1.4336-1.6523-2.9648-3.2227-4.5742-4.707-0.27734-0.25781-0.57031-0.51172-0.85547-0.76562-1.793-1.6016-3.7266-3.2031-5.8594-4.7969-0.24219-0.18359-0.50781-0.36328-0.75781-0.54297-2.2812-1.668-4.7031-3.3281-7.3359-4.9688l-0.10938-0.0625c-2.6523-1.6484-5.5039-3.2695-8.4922-4.8672-0.26562-0.14062-0.51172-0.28516-0.78125-0.42578-2.9219-1.543-6.0156-3.0508-9.2305-4.5312-0.25391-0.11719-0.47656-0.24219-0.73047-0.35938 0.65625-1.2656 1.1797-2.4727 1.8086-3.7305 1.1719-2.3398 2.2891-4.6445 3.3633-6.9375 0.55859-1.1953 1.2227-2.4375 1.7539-3.6211 35.059 15.906 54.984 36.27 54.984 56.48 0 21.535-22.629 43.242-62.078 59.551z"></path>
  <path d="m439.36 400c0-10.441-4.1484-20.453-11.527-27.832-7.3828-7.3828-17.395-11.531-27.832-11.531-10.441 0-20.453 4.1484-27.832 11.531-7.3828 7.3789-11.531 17.391-11.531 27.832 0 10.438 4.1484 20.449 11.531 27.832 7.3789 7.3789 17.391 11.527 27.832 11.527 10.434-0.011719 20.438-4.1641 27.816-11.543s11.531-17.383 11.543-27.816zm-62.977 0c0-6.2656 2.4883-12.273 6.918-16.699 4.4258-4.4297 10.434-6.918 16.699-6.918 6.2617 0 12.27 2.4883 16.699 6.918 4.4258 4.4258 6.9141 10.434 6.9141 16.699 0 6.2617-2.4883 12.27-6.9141 16.699-4.4297 4.4258-10.438 6.9141-16.699 6.9141-6.2617-0.003906-12.266-2.4961-16.691-6.9219-4.4297-4.4297-6.918-10.43-6.9258-16.691z"></path>
 </g>

      </g>
      </svg>