<svg id="svg" fill="#B19EEF" stroke="#B19EEF" width="69" height="69" version="1.1" viewBox="144 144 512 512" xmlns="http://www.w3.org/2000/svg">
    <g id="IconSvg_bgCarrier" stroke-width="0"></g>
    <g id="IconSvg_tracerCarrier" stroke-linecap="round" stroke-linejoin="round" stroke="#CCCCCC" stroke-width="0">
      <g xmlns="http://www.w3.org/2000/svg">
  <path d="m261.23 372.5c-7.207 18.055-16.043 35.418-26.398 51.867-10.652 16.934-19.723 34.809-27.102 53.402-8.2461 22.945-9.7773 54.688 10.664 74.961 17.391 17.25 43.191 17.871 66.461 17.871 0.91016 0 1.8164-0.003907 2.7148-0.003907l2.6289-0.003906 2.6289 0.003906c23.918 0.023438 51.105 0.050782 69.176-17.871 20.445-20.27 18.914-52.012 10.664-74.957-7.375-18.59-16.445-36.465-27.098-53.391-10.359-16.457-19.191-33.82-26.398-51.879-4.0469-11.516-6.0664-23.645-5.9727-35.852v-44.477h1.6992c7.3867 0 13.375-5.9922 13.375-13.379s-5.9883-13.379-13.375-13.379h-49.398c-7.3867 0-13.379 5.9922-13.379 13.379s5.9922 13.379 13.379 13.379h1.6992v44.477c0.097656 12.207-1.9219 24.336-5.9688 35.852zm20.473-80.332v0.003906c2.7812 0 5.0352-2.2578 5.0352-5.0391 0-2.7852-2.2539-5.0391-5.0352-5.0391h-16.203c-1.8242 0-3.3008-1.4766-3.3008-3.3008s1.4766-3.3008 3.3008-3.3008h49.398c1.8203 0 3.3008 1.4766 3.3008 3.3008s-1.4805 3.3008-3.3008 3.3008h-9.625c-2.3555-0.011718-4.3984 1.6172-4.9141 3.9141-0.51953 2.293 0.63281 4.6406 2.7656 5.6406v45c-0.10156 13.371 2.125 26.656 6.5703 39.27 7.3984 18.648 16.5 36.578 27.184 53.559 10.324 16.398 19.129 33.707 26.305 51.703 7.2031 20.023 8.8125 47.453-8.2773 64.395-15.121 15-40.094 14.957-62.07 14.945l-2.6367-0.003907-2.6367 0.003907c-21.988 0.015624-46.953 0.050781-62.07-14.945-17.082-16.941-15.473-44.371-8.2773-64.395 7.1797-18 15.984-35.309 26.309-51.707 10.684-16.98 19.781-34.91 27.184-53.555 4.4453-12.613 6.6641-25.898 6.5664-39.27v-44.477z"></path>
  <path d="m262.87 477c-11.758-1.125-23.598-1.1602-35.363-0.11328-0.59375 0.070313-1.1758 0.24219-1.707 0.51953-0.14844 0.070313-0.28125 0.15234-0.41797 0.23828v-0.003907c-0.40234 0.24609-0.76562 0.54688-1.082 0.89062-0.078125 0.085938-0.17188 0.15625-0.24219 0.24609h-0.003906c-0.32813 0.40625-0.59375 0.85547-0.78125 1.3438l-1.0664 2.8477c-6.6406 18.473-8.2852 43.629 7.0391 58.82 12.477 12.391 32.594 13.398 55.672 13.398h10.582c23.074 0 43.191-1.0078 55.672-13.398 15.305-15.18 13.652-40.336 7-58.832h-0.003906c-3.2461-8.7227-7.0781-17.211-11.477-25.41l-0.03125-0.035156-0.015625-0.046875c-0.17578-0.26172-0.37891-0.5-0.60547-0.72266-0.43359-0.71094-1.1172-1.2266-1.9219-1.4492-0.15234-0.0625-0.26953-0.18359-0.42969-0.23047h-0.019531c-1.2891-0.39062-2.6797-0.24219-3.8594 0.40625-2.9961 1.6406-5.957 3.3359-8.9102 5.0234-2.5898 1.4766-5.1602 2.9531-7.7305 4.3711-18.297 10.359-39.418 14.609-60.297 12.137zm73.027-7.7656c1.4023-0.80078 2.8242-1.5898 4.2344-2.3867h0.003907c3.2305 6.3359 6.0859 12.859 8.5508 19.531 5.5977 15.562 7.3242 36.414-4.6211 48.262l-0.003906 0.003907c-9.7461 9.6836-27.762 10.469-48.566 10.469l-10.582-0.003907c-20.801 0-38.82-0.78906-48.57-10.473-11.805-11.703-10.297-32.148-4.7656-47.938 0.96094-0.070313 1.9219-0.14844 2.8945-0.20312 0.96094-0.054688 1.9219-0.11328 2.8984-0.14844 1.7188-0.066406 3.4727-0.089843 5.2383-0.10547 0.86328-0.007813 1.7109-0.027344 2.582-0.019532 2.0352 0.015626 4.1172 0.078126 6.2188 0.16016 0.66016 0.027343 1.2969 0.03125 1.9609 0.0625 2.8125 0.13672 5.6797 0.32812 8.625 0.58594 2.8203 0.24609 5.543 0.38281 8.2305 0.47266 0.71875 0.023438 1.4375 0.039063 2.1484 0.050782 0.78516 0.015625 1.5898 0.054687 2.3633 0.054687 1.1406 0 2.2383-0.066406 3.3594-0.097656 0.91797-0.023437 1.8516-0.035156 2.7539-0.078125 2.1602-0.10938 4.2852-0.28516 6.3828-0.51172 0.46875-0.050781 0.95703-0.070312 1.4258-0.12891 2.5273-0.30859 5.0156-0.71484 7.4766-1.1992 0.75-0.14844 1.4922-0.34375 2.2383-0.50781 1.7266-0.38281 3.4492-0.79297 5.1523-1.2656 0.89453-0.25 1.7891-0.52734 2.6797-0.80078 1.5703-0.48438 3.1367-1.0039 4.7031-1.5664 0.88672-0.32031 1.7812-0.64453 2.668-0.99219 1.6484-0.64453 3.3008-1.3516 4.9492-2.0898 0.75781-0.33984 1.5195-0.65625 2.2812-1.0156 2.3984-1.1328 4.8047-2.3398 7.2266-3.6758 2.6172-1.4414 5.2344-2.9375 7.8672-4.4414z"></path>
  <path d="m323.36 437.21c0.66797 1.1602 1.7695 2.0039 3.0586 2.3516 1.293 0.34766 2.668 0.16406 3.8281-0.50391 1.1562-0.66797 2-1.7695 2.3477-3.0586 0.34375-1.293 0.16406-2.668-0.50391-3.8242l-17.965-31.117c-1.3906-2.4062-4.4727-3.2305-6.8828-1.8398-2.4062 1.3906-3.2344 4.4688-1.8438 6.8789z"></path>
  <path d="m398.36 368.42c-9.3789-0.007813-18.234 4.3242-23.98 11.734-5.75 7.4102-7.7422 17.062-5.4023 26.145 2.3438 9.082 8.7578 16.57 17.371 20.273 8.6172 3.707 18.461 3.2188 26.668-1.3281l53.141 53.145c-5.543 8.6367-6.3555 19.488-2.1602 28.859 4.1992 9.3672 12.836 15.984 22.973 17.602 10.137 1.6133 20.402-1.9922 27.301-9.5938 6.9023-7.5977 9.5-18.164 6.918-28.098-2.5859-9.9375-10.004-17.895-19.734-21.168-9.7266-3.2734-20.453-1.4219-28.516 4.9297l-52.016-52.016c4.9883-5.5352 7.75-12.723 7.75-20.172 0-7.4531-2.7617-14.641-7.75-20.172l52.016-52.02c8.0586 6.3438 18.773 8.1953 28.496 4.9258 9.7188-3.2734 17.133-11.227 19.715-21.152 2.582-9.9258-0.015626-20.484-6.9102-28.078s-17.152-11.199-27.281-9.5859c-10.129 1.6133-18.762 8.2266-22.953 17.586-4.1953 9.3633-3.3828 20.203 2.1523 28.836l-53.141 53.145c-4.4844-2.4922-9.5273-3.7969-14.656-3.7969zm-20.23 30.309v0.003907c0-5.3672 2.1328-10.516 5.9258-14.309 3.7969-3.793 8.9414-5.9258 14.309-5.9258 5.3672 0 10.512 2.1328 14.309 5.9258 3.793 3.7969 5.9258 8.9414 5.9258 14.309 0 5.3672-2.1328 10.512-5.9297 14.309-3.793 3.793-8.9414 5.9258-14.309 5.9219-5.3633-0.003907-10.504-2.1406-14.297-5.9336-3.793-3.793-5.9258-8.9336-5.9336-14.297zm133.76 95.98c0 5.3672-2.1328 10.516-5.9258 14.309-3.7969 3.7969-8.9414 5.9258-14.309 5.9258s-10.516-2.1328-14.309-5.9258c-3.793-3.7969-5.9258-8.9414-5.9258-14.309 0-5.3672 2.1328-10.512 5.9297-14.309 3.793-3.793 8.9414-5.9258 14.309-5.9219 5.3633 0.003907 10.504 2.1406 14.297 5.9336 3.793 3.793 5.9258 8.9336 5.9336 14.297zm-20.23-212.19c5.3633 0 10.508 2.1328 14.305 5.9258 3.793 3.7969 5.9219 8.9414 5.9219 14.309 0 5.3672-2.1328 10.512-5.9258 14.305-3.7969 3.793-8.9414 5.9258-14.309 5.9258-5.3672 0-10.512-2.1328-14.305-5.9297-3.793-3.793-5.9258-8.9375-5.9258-14.305 0.007813-5.3633 2.1406-10.508 5.9336-14.301s8.9375-5.9258 14.305-5.9297z"></path>
  <path d="m476.63 175.8h-71.43c-4.0078 0.003906-7.8477 1.5977-10.684 4.4297-2.832 2.8359-4.4258 6.6758-4.4297 10.684v12.77h-64.812c-10.633 0.011719-20.832 4.2422-28.352 11.762-7.5195 7.5234-11.75 17.719-11.762 28.355 0 2.7812 2.2578 5.0352 5.0391 5.0352s5.0391-2.2539 5.0391-5.0352c0.007812-7.9648 3.1758-15.602 8.8086-21.23 5.6289-5.6328 13.266-8.8008 21.227-8.8125h47.113v8.3398h-38.113c-7.0352 0.007813-13.781 2.8086-18.758 7.7852-4.9727 4.9727-7.7734 11.719-7.7812 18.754 0 2.7852 2.2539 5.0391 5.0391 5.0391 2.7812 0 5.0391-2.2539 5.0391-5.0391 0.003906-4.3633 1.7383-8.5469 4.8242-11.633 3.0859-3.0859 7.2734-4.8242 11.637-4.8281h38.117v1.6758h-0.003906c0 1.3359 0.53125 2.6211 1.4766 3.5625 0.94531 0.94531 2.2266 1.4766 3.5625 1.4766h126.98c1.3359 0 2.6172-0.53125 3.5625-1.4766 0.94531-0.94141 1.4766-2.2266 1.4766-3.5625v-1.6758h38.117-0.003906c4.3672 0.003906 8.5508 1.7422 11.637 4.8281 3.0859 3.0859 4.8203 7.2695 4.8281 11.633v325.45c-0.007813 4.3633-1.7422 8.5508-4.8281 11.637-3.0859 3.0859-7.2695 4.8242-11.637 4.8281h-213.28c-2.7812 0-5.0391 2.2539-5.0391 5.0391 0 2.7812 2.2578 5.0352 5.0391 5.0352h213.28c7.0391-0.007812 13.781-2.8047 18.758-7.7812 4.9766-4.9766 7.7734-11.723 7.7812-18.758v-325.45c-0.007812-7.0352-2.8047-13.781-7.7812-18.754-4.9766-4.9766-11.723-7.7773-18.758-7.7852h-38.113v-8.3398h48.5c7.9648 0.011719 15.598 3.1797 21.23 8.8125 5.6289 5.6289 8.7969 13.266 8.8086 21.23v340.28c-0.011719 7.9609-3.1797 15.598-8.8086 21.227-5.6328 5.6328-13.266 8.8008-21.23 8.8086h-232.67c-7.9609-0.007813-15.598-3.1758-21.227-8.8086-5.6328-5.6289-8.8008-13.266-8.8086-21.227 0-2.7852-2.2578-5.0391-5.0391-5.0391s-5.0391 2.2539-5.0391 5.0391c0.011719 10.633 4.2422 20.828 11.762 28.352 7.5234 7.5195 17.719 11.75 28.352 11.762h232.67c10.637-0.011718 20.832-4.2422 28.352-11.762 7.5195-7.5234 11.75-17.719 11.762-28.352v-340.28c-0.011719-10.637-4.2422-20.832-11.762-28.355-7.5195-7.5195-17.715-11.75-28.352-11.762h-66.199v-12.77c-0.003906-4.0078-1.5977-7.8477-4.4297-10.684-2.8359-2.832-6.6758-4.4258-10.684-4.4297zm-76.469 15.113c0.003907-2.7812 2.2578-5.0352 5.0391-5.0391h71.43c2.7812 0.003906 5.0352 2.2578 5.0391 5.0391v12.77h-81.508zm99.203 37.902h-116.9v-15.059h116.9z"></path>
 </g>

      </g>
     <g id="IconSvg_iconCarrier">
      <g xmlns="http://www.w3.org/2000/svg">
  <path d="m261.23 372.5c-7.207 18.055-16.043 35.418-26.398 51.867-10.652 16.934-19.723 34.809-27.102 53.402-8.2461 22.945-9.7773 54.688 10.664 74.961 17.391 17.25 43.191 17.871 66.461 17.871 0.91016 0 1.8164-0.003907 2.7148-0.003907l2.6289-0.003906 2.6289 0.003906c23.918 0.023438 51.105 0.050782 69.176-17.871 20.445-20.27 18.914-52.012 10.664-74.957-7.375-18.59-16.445-36.465-27.098-53.391-10.359-16.457-19.191-33.82-26.398-51.879-4.0469-11.516-6.0664-23.645-5.9727-35.852v-44.477h1.6992c7.3867 0 13.375-5.9922 13.375-13.379s-5.9883-13.379-13.375-13.379h-49.398c-7.3867 0-13.379 5.9922-13.379 13.379s5.9922 13.379 13.379 13.379h1.6992v44.477c0.097656 12.207-1.9219 24.336-5.9688 35.852zm20.473-80.332v0.003906c2.7812 0 5.0352-2.2578 5.0352-5.0391 0-2.7852-2.2539-5.0391-5.0352-5.0391h-16.203c-1.8242 0-3.3008-1.4766-3.3008-3.3008s1.4766-3.3008 3.3008-3.3008h49.398c1.8203 0 3.3008 1.4766 3.3008 3.3008s-1.4805 3.3008-3.3008 3.3008h-9.625c-2.3555-0.011718-4.3984 1.6172-4.9141 3.9141-0.51953 2.293 0.63281 4.6406 2.7656 5.6406v45c-0.10156 13.371 2.125 26.656 6.5703 39.27 7.3984 18.648 16.5 36.578 27.184 53.559 10.324 16.398 19.129 33.707 26.305 51.703 7.2031 20.023 8.8125 47.453-8.2773 64.395-15.121 15-40.094 14.957-62.07 14.945l-2.6367-0.003907-2.6367 0.003907c-21.988 0.015624-46.953 0.050781-62.07-14.945-17.082-16.941-15.473-44.371-8.2773-64.395 7.1797-18 15.984-35.309 26.309-51.707 10.684-16.98 19.781-34.91 27.184-53.555 4.4453-12.613 6.6641-25.898 6.5664-39.27v-44.477z"></path>
  <path d="m262.87 477c-11.758-1.125-23.598-1.1602-35.363-0.11328-0.59375 0.070313-1.1758 0.24219-1.707 0.51953-0.14844 0.070313-0.28125 0.15234-0.41797 0.23828v-0.003907c-0.40234 0.24609-0.76562 0.54688-1.082 0.89062-0.078125 0.085938-0.17188 0.15625-0.24219 0.24609h-0.003906c-0.32813 0.40625-0.59375 0.85547-0.78125 1.3438l-1.0664 2.8477c-6.6406 18.473-8.2852 43.629 7.0391 58.82 12.477 12.391 32.594 13.398 55.672 13.398h10.582c23.074 0 43.191-1.0078 55.672-13.398 15.305-15.18 13.652-40.336 7-58.832h-0.003906c-3.2461-8.7227-7.0781-17.211-11.477-25.41l-0.03125-0.035156-0.015625-0.046875c-0.17578-0.26172-0.37891-0.5-0.60547-0.72266-0.43359-0.71094-1.1172-1.2266-1.9219-1.4492-0.15234-0.0625-0.26953-0.18359-0.42969-0.23047h-0.019531c-1.2891-0.39062-2.6797-0.24219-3.8594 0.40625-2.9961 1.6406-5.957 3.3359-8.9102 5.0234-2.5898 1.4766-5.1602 2.9531-7.7305 4.3711-18.297 10.359-39.418 14.609-60.297 12.137zm73.027-7.7656c1.4023-0.80078 2.8242-1.5898 4.2344-2.3867h0.003907c3.2305 6.3359 6.0859 12.859 8.5508 19.531 5.5977 15.562 7.3242 36.414-4.6211 48.262l-0.003906 0.003907c-9.7461 9.6836-27.762 10.469-48.566 10.469l-10.582-0.003907c-20.801 0-38.82-0.78906-48.57-10.473-11.805-11.703-10.297-32.148-4.7656-47.938 0.96094-0.070313 1.9219-0.14844 2.8945-0.20312 0.96094-0.054688 1.9219-0.11328 2.8984-0.14844 1.7188-0.066406 3.4727-0.089843 5.2383-0.10547 0.86328-0.007813 1.7109-0.027344 2.582-0.019532 2.0352 0.015626 4.1172 0.078126 6.2188 0.16016 0.66016 0.027343 1.2969 0.03125 1.9609 0.0625 2.8125 0.13672 5.6797 0.32812 8.625 0.58594 2.8203 0.24609 5.543 0.38281 8.2305 0.47266 0.71875 0.023438 1.4375 0.039063 2.1484 0.050782 0.78516 0.015625 1.5898 0.054687 2.3633 0.054687 1.1406 0 2.2383-0.066406 3.3594-0.097656 0.91797-0.023437 1.8516-0.035156 2.7539-0.078125 2.1602-0.10938 4.2852-0.28516 6.3828-0.51172 0.46875-0.050781 0.95703-0.070312 1.4258-0.12891 2.5273-0.30859 5.0156-0.71484 7.4766-1.1992 0.75-0.14844 1.4922-0.34375 2.2383-0.50781 1.7266-0.38281 3.4492-0.79297 5.1523-1.2656 0.89453-0.25 1.7891-0.52734 2.6797-0.80078 1.5703-0.48438 3.1367-1.0039 4.7031-1.5664 0.88672-0.32031 1.7812-0.64453 2.668-0.99219 1.6484-0.64453 3.3008-1.3516 4.9492-2.0898 0.75781-0.33984 1.5195-0.65625 2.2812-1.0156 2.3984-1.1328 4.8047-2.3398 7.2266-3.6758 2.6172-1.4414 5.2344-2.9375 7.8672-4.4414z"></path>
  <path d="m323.36 437.21c0.66797 1.1602 1.7695 2.0039 3.0586 2.3516 1.293 0.34766 2.668 0.16406 3.8281-0.50391 1.1562-0.66797 2-1.7695 2.3477-3.0586 0.34375-1.293 0.16406-2.668-0.50391-3.8242l-17.965-31.117c-1.3906-2.4062-4.4727-3.2305-6.8828-1.8398-2.4062 1.3906-3.2344 4.4688-1.8438 6.8789z"></path>
  <path d="m398.36 368.42c-9.3789-0.007813-18.234 4.3242-23.98 11.734-5.75 7.4102-7.7422 17.062-5.4023 26.145 2.3438 9.082 8.7578 16.57 17.371 20.273 8.6172 3.707 18.461 3.2188 26.668-1.3281l53.141 53.145c-5.543 8.6367-6.3555 19.488-2.1602 28.859 4.1992 9.3672 12.836 15.984 22.973 17.602 10.137 1.6133 20.402-1.9922 27.301-9.5938 6.9023-7.5977 9.5-18.164 6.918-28.098-2.5859-9.9375-10.004-17.895-19.734-21.168-9.7266-3.2734-20.453-1.4219-28.516 4.9297l-52.016-52.016c4.9883-5.5352 7.75-12.723 7.75-20.172 0-7.4531-2.7617-14.641-7.75-20.172l52.016-52.02c8.0586 6.3438 18.773 8.1953 28.496 4.9258 9.7188-3.2734 17.133-11.227 19.715-21.152 2.582-9.9258-0.015626-20.484-6.9102-28.078s-17.152-11.199-27.281-9.5859c-10.129 1.6133-18.762 8.2266-22.953 17.586-4.1953 9.3633-3.3828 20.203 2.1523 28.836l-53.141 53.145c-4.4844-2.4922-9.5273-3.7969-14.656-3.7969zm-20.23 30.309v0.003907c0-5.3672 2.1328-10.516 5.9258-14.309 3.7969-3.793 8.9414-5.9258 14.309-5.9258 5.3672 0 10.512 2.1328 14.309 5.9258 3.793 3.7969 5.9258 8.9414 5.9258 14.309 0 5.3672-2.1328 10.512-5.9297 14.309-3.793 3.793-8.9414 5.9258-14.309 5.9219-5.3633-0.003907-10.504-2.1406-14.297-5.9336-3.793-3.793-5.9258-8.9336-5.9336-14.297zm133.76 95.98c0 5.3672-2.1328 10.516-5.9258 14.309-3.7969 3.7969-8.9414 5.9258-14.309 5.9258s-10.516-2.1328-14.309-5.9258c-3.793-3.7969-5.9258-8.9414-5.9258-14.309 0-5.3672 2.1328-10.512 5.9297-14.309 3.793-3.793 8.9414-5.9258 14.309-5.9219 5.3633 0.003907 10.504 2.1406 14.297 5.9336 3.793 3.793 5.9258 8.9336 5.9336 14.297zm-20.23-212.19c5.3633 0 10.508 2.1328 14.305 5.9258 3.793 3.7969 5.9219 8.9414 5.9219 14.309 0 5.3672-2.1328 10.512-5.9258 14.305-3.7969 3.793-8.9414 5.9258-14.309 5.9258-5.3672 0-10.512-2.1328-14.305-5.9297-3.793-3.793-5.9258-8.9375-5.9258-14.305 0.007813-5.3633 2.1406-10.508 5.9336-14.301s8.9375-5.9258 14.305-5.9297z"></path>
  <path d="m476.63 175.8h-71.43c-4.0078 0.003906-7.8477 1.5977-10.684 4.4297-2.832 2.8359-4.4258 6.6758-4.4297 10.684v12.77h-64.812c-10.633 0.011719-20.832 4.2422-28.352 11.762-7.5195 7.5234-11.75 17.719-11.762 28.355 0 2.7812 2.2578 5.0352 5.0391 5.0352s5.0391-2.2539 5.0391-5.0352c0.007812-7.9648 3.1758-15.602 8.8086-21.23 5.6289-5.6328 13.266-8.8008 21.227-8.8125h47.113v8.3398h-38.113c-7.0352 0.007813-13.781 2.8086-18.758 7.7852-4.9727 4.9727-7.7734 11.719-7.7812 18.754 0 2.7852 2.2539 5.0391 5.0391 5.0391 2.7812 0 5.0391-2.2539 5.0391-5.0391 0.003906-4.3633 1.7383-8.5469 4.8242-11.633 3.0859-3.0859 7.2734-4.8242 11.637-4.8281h38.117v1.6758h-0.003906c0 1.3359 0.53125 2.6211 1.4766 3.5625 0.94531 0.94531 2.2266 1.4766 3.5625 1.4766h126.98c1.3359 0 2.6172-0.53125 3.5625-1.4766 0.94531-0.94141 1.4766-2.2266 1.4766-3.5625v-1.6758h38.117-0.003906c4.3672 0.003906 8.5508 1.7422 11.637 4.8281 3.0859 3.0859 4.8203 7.2695 4.8281 11.633v325.45c-0.007813 4.3633-1.7422 8.5508-4.8281 11.637-3.0859 3.0859-7.2695 4.8242-11.637 4.8281h-213.28c-2.7812 0-5.0391 2.2539-5.0391 5.0391 0 2.7812 2.2578 5.0352 5.0391 5.0352h213.28c7.0391-0.007812 13.781-2.8047 18.758-7.7812 4.9766-4.9766 7.7734-11.723 7.7812-18.758v-325.45c-0.007812-7.0352-2.8047-13.781-7.7812-18.754-4.9766-4.9766-11.723-7.7773-18.758-7.7852h-38.113v-8.3398h48.5c7.9648 0.011719 15.598 3.1797 21.23 8.8125 5.6289 5.6289 8.7969 13.266 8.8086 21.23v340.28c-0.011719 7.9609-3.1797 15.598-8.8086 21.227-5.6328 5.6328-13.266 8.8008-21.23 8.8086h-232.67c-7.9609-0.007813-15.598-3.1758-21.227-8.8086-5.6328-5.6289-8.8008-13.266-8.8086-21.227 0-2.7852-2.2578-5.0391-5.0391-5.0391s-5.0391 2.2539-5.0391 5.0391c0.011719 10.633 4.2422 20.828 11.762 28.352 7.5234 7.5195 17.719 11.75 28.352 11.762h232.67c10.637-0.011718 20.832-4.2422 28.352-11.762 7.5195-7.5234 11.75-17.719 11.762-28.352v-340.28c-0.011719-10.637-4.2422-20.832-11.762-28.355-7.5195-7.5195-17.715-11.75-28.352-11.762h-66.199v-12.77c-0.003906-4.0078-1.5977-7.8477-4.4297-10.684-2.8359-2.832-6.6758-4.4258-10.684-4.4297zm-76.469 15.113c0.003907-2.7812 2.2578-5.0352 5.0391-5.0391h71.43c2.7812 0.003906 5.0352 2.2578 5.0391 5.0391v12.77h-81.508zm99.203 37.902h-116.9v-15.059h116.9z"></path>
 </g>

      </g>
      </svg>