<svg id="svg" fill="#4c00ff" stroke="#4c00ff" width="69" height="69" version="1.1" viewBox="144 144 512 512" xmlns="http://www.w3.org/2000/svg" transform="rotate(180)">
    <g id="IconSvg_bgCarrier" stroke-width="0"></g>
    <g id="IconSvg_tracerCarrier" stroke-linecap="round" stroke-linejoin="round" stroke="#CCCCCC" stroke-width="0">
      <path xmlns="http://www.w3.org/2000/svg" d="m482.94 188.9c-46.023-18.059-96.684-20.586-144.27-7.1953-47.59 13.387-89.504 41.961-119.36 81.367-29.852 39.406-46.016 87.488-46.023 136.93 0 4.5742 0.14844 9.1758 0.4375 13.605 3.4453 57.672 28.781 111.85 70.832 151.47 42.051 39.621 97.641 61.688 155.41 61.695 57.777 0.007813 113.38-22.043 155.43-61.652 42.062-39.605 67.414-93.781 70.875-151.45 0.28906-4.4922 0.4375-9.0938 0.4375-13.668-0.027344-45.551-13.75-90.039-39.391-127.68-25.637-37.645-62.008-66.711-104.38-83.414zm-70.348 57.156 56.234-40.863c2.2539 0.79297 4.5117 1.5898 6.7422 2.4609 32.715 12.945 61.605 33.98 83.965 61.141 1.5195 1.8477 2.9805 3.7344 4.4336 5.6289l-21.469 66.027-51.355 16.719-78.551-57.078zm-172.13 22.738c22.355-27.156 51.242-48.191 83.953-61.133 2.2344-0.875 4.4961-1.6719 6.7539-2.4688l56.234 40.863v54.035l-78.551 57.074-51.359-16.723-21.469-66.02c1.4531-1.8945 2.9141-3.7812 4.4375-5.6289zm-10.566 248.34c-1.3594-1.9727-2.7227-3.9453-4.0195-5.9727v-0.003906c-18.941-29.656-29.973-63.668-32.043-98.797-0.15625-2.3672-0.16797-4.7891-0.23047-7.1992l56.109-40.758 51.375 16.727 29.973 92.207-31.766 43.797zm228.91 80.867c-2.2891 0.67578-4.582 1.3555-6.9023 1.9531-34.055 8.7695-69.781 8.7656-103.84-0.007812-2.3164-0.59766-4.6016-1.2734-6.8867-1.9492l-21.484-66.098 31.691-43.691 97.191 0.003906 31.703 43.707zm147.35-185.58c-2.082 35.105-13.113 69.098-32.047 98.738-1.2969 2.0273-2.6602 3.9961-4.0195 5.9727h-69.414l-31.754-43.777 29.977-92.227 51.375-16.727 56.113 40.758c-0.0625 2.4219-0.078125 4.8516-0.23047 7.2617z"></path>

      </g>
     <g id="IconSvg_iconCarrier">
      <path xmlns="http://www.w3.org/2000/svg" d="m482.94 188.9c-46.023-18.059-96.684-20.586-144.27-7.1953-47.59 13.387-89.504 41.961-119.36 81.367-29.852 39.406-46.016 87.488-46.023 136.93 0 4.5742 0.14844 9.1758 0.4375 13.605 3.4453 57.672 28.781 111.85 70.832 151.47 42.051 39.621 97.641 61.688 155.41 61.695 57.777 0.007813 113.38-22.043 155.43-61.652 42.062-39.605 67.414-93.781 70.875-151.45 0.28906-4.4922 0.4375-9.0938 0.4375-13.668-0.027344-45.551-13.75-90.039-39.391-127.68-25.637-37.645-62.008-66.711-104.38-83.414zm-70.348 57.156 56.234-40.863c2.2539 0.79297 4.5117 1.5898 6.7422 2.4609 32.715 12.945 61.605 33.98 83.965 61.141 1.5195 1.8477 2.9805 3.7344 4.4336 5.6289l-21.469 66.027-51.355 16.719-78.551-57.078zm-172.13 22.738c22.355-27.156 51.242-48.191 83.953-61.133 2.2344-0.875 4.4961-1.6719 6.7539-2.4688l56.234 40.863v54.035l-78.551 57.074-51.359-16.723-21.469-66.02c1.4531-1.8945 2.9141-3.7812 4.4375-5.6289zm-10.566 248.34c-1.3594-1.9727-2.7227-3.9453-4.0195-5.9727v-0.003906c-18.941-29.656-29.973-63.668-32.043-98.797-0.15625-2.3672-0.16797-4.7891-0.23047-7.1992l56.109-40.758 51.375 16.727 29.973 92.207-31.766 43.797zm228.91 80.867c-2.2891 0.67578-4.582 1.3555-6.9023 1.9531-34.055 8.7695-69.781 8.7656-103.84-0.007812-2.3164-0.59766-4.6016-1.2734-6.8867-1.9492l-21.484-66.098 31.691-43.691 97.191 0.003906 31.703 43.707zm147.35-185.58c-2.082 35.105-13.113 69.098-32.047 98.738-1.2969 2.0273-2.6602 3.9961-4.0195 5.9727h-69.414l-31.754-43.777 29.977-92.227 51.375-16.727 56.113 40.758c-0.0625 2.4219-0.078125 4.8516-0.23047 7.2617z"></path>

      </g>
      </svg>